<?xml version="1.0" encoding="UTF-8"?>
<svg id="_レイヤー_1" data-name="レイヤー_1" xmlns="http://www.w3.org/2000/svg" version="1.1" viewBox="0 0 1190.55 841.89">
  <!-- Generator: Adobe Illustrator 29.4.0, SVG Export Plug-In . SVG Version: 2.1.0 Build 152)  -->
  <defs>
    <style>
      .st0 {
        fill: #fff;
      }

      .st1 {
        fill: #231815;
      }
    </style>
  </defs>
  <path d="M201.37,453.7c-1.96-.34-1.16.28-1.56,1.07-15.8,30.9-35.32,61.21-71.87,69.06-60.1,12.91-84.07-43.87-77.85-94.4,2.94-23.91,18.43-61.1,37.77-76.2,3.65-2.85,14.34-8.1,16.51-1.56,2.36,7.13-4.88,7.04-8.63,9.45-7.69,4.96-21.76,27.81-25.65,36.58-15.85,35.82-16.33,104.58,31.13,115.34,42.29,9.59,76.57-32.17,90.54-67.08,2.16-5.4,5.59-27.29,14.49-20.02,3.99,3.25,2.15,9.35,2.69,13.81,5.9,49.47,51.1,85.13,98.79,57.76,39.54-22.69,52.76-70.7,54.35-113.6,4.07-5.7,10.11-3.53,10.91,3.42,1.53,13.34-6.56,46.65-11.23,60-15.42,44.07-60.4,81.98-109.25,67.3-27.54-8.27-44.56-34.15-51.14-60.94Z"/>
  <path d="M708.74,474.7c8.87-26.6,29.81-48.29,60.13-42.54,23.21,4.4,38.9,28.02,45.17,49.29,1.4,4.74,5.17,15.88-.1,18.64-8.55,4.48-9.48-12.19-11.31-17.72-5.66-17.12-19.2-38-38.81-39.91-29.54-2.88-45.13,27.12-48.99,52.2-.86,5.62,1.08,20.16-8.37,17.21-3.57-1.12-4.2-6.14-4.98-9.29-10.42-42.43-13.17-90.34-12.93-133.96,1.02-6.42,10.32-6.95,11.18-1.52,1.23,7.81-.59,12.17-.2,25.98.44,11.67,1.22,55.92,7.79,79.67.24.86.26,1.81,1.42,1.95Z"/>
  <path d="M625.56,437.96c5.84.27,11.81-.37,17.65-.04,3.85.22,15.04,1.14,17.25,3.73,3.03,3.55,1.45,8.15-3.11,9.04l-31.03-2.24c-1.35,1.36,4.84,33.47,6.21,37.66,1.75,5.36,9.08,11.49,5.05,15.98-6.5,7.23-13.67-6.78-15.35-11.67-4.3-12.54-5.34-28.08-7.15-41.22-10.13.9-20.23.52-30.39.72-4.08.08-11.32,3.18-12.3-3.4-.59-3.94,1.13-6.21,5.01-6.89,2.57-.45,7.51-.81,10.29-.96,8.86-.47,17.85.82,26.63-.73-.08-8.36-1.31-16.72-.73-25.11.35-5.13,1.62-19.13,10.03-13.8,3.74,2.37,1.24,8.91,1.17,12.26-.18,8.89-.13,17.84.78,26.66Z"/>
  <path d="M477.18,477.7l9.01-12.35c10.71-11.6,24.67-20.94,40.92-22.05,6.36-.43,17.55,1.3,22.02,6.27,4.91,5.45,1.25,14.06-5.45,10.71-3.27-1.64-3.51-4.49-8.76-5.48-24.66-4.66-45.29,20.52-54.13,40.39-1.65,3.7-2.94,12.93-7.16,13.86-9.99,2.2-7.6-12.3-7.7-18.22-.26-14.83.11-33.05,2.34-47.92,1.09-7.25,4-14.93,11.51-7.2l-2.59,41.98Z"/>
  <path d="M409.93,508.24c-1.62-1.61-2.33-9.44-2.49-12.13-.69-11.37-.2-25.4.79-36.77.37-4.29,2.25-22.46,5.03-24.4,3.63-2.53,9.2-.58,9.22,4.13.01,1.92-1.17,4.09-1.43,6.11-2.24,17.99-2.71,35.03-2.37,53.19.06,3.33,2.06,5.96-.36,9.33-1.96,2.72-6.08,2.86-8.39.56Z"/>
  <path d="M417.79,402.16c4.3-.67,20.67-.71,24.34.75s5.09,6.52,2.05,9.15c-3.27,2.82-14.07.37-18.3.37-3.85,0-10.6,3.1-13.52-.73-3.63-4.77.6-8.79,5.44-9.54Z"/>
  <path class="st0" d="M1113.38,554.14l-48.65-2.19c2.78-19.55-.92-40.95-20.78-49.32-31.08-13.1-51.93,15.63-51.91,44.07l-46.39-1.59c-1.26-14.39-2.9-28.62-5.54-42.82-2.95-15.85-7.79-42.98-18.54-54.94-12.88-14.32-48.25-25.12-56.09-42.11-2.49-5.39-2.16-11.59-5.06-16.81l-2.52.03c.72,6.2,3.15,11.99,3.04,18.4-.13,7.62-2.6,22.81-13.57,19.5-5.91-1.78-10.64-15.59-12.52-21.22s-5.14-12.92-1.71-18.58c.87-1.44,7.71-8.51,9.37-10.12,1.03-1,5.5-3.8,5.65-4.25,1.3-3.97-2.97-2.49-5.25-.98-4.36-17.91-2.31-36.26,1.86-54,3.52-14.99,8.85-30.74,18.75-42.72,5.84,8.99,14.73,17.19,26.15,11.9,5.4-2.5,8.51-9.73,8.64-15.41.08-3.26-3.33-21.27-5.92-22.41l-2.27.41c3.52,10.42,10.29,34.48-7.34,35.84-11.02.85-25.12-22.21-20.22-32.3,2.79-5.75,17.86-14.88,23.58-18.43,2.16-.2,5.68,6.93,8.8,6.66,1.06-.09,6.03-3.38,7.93-4.14,81.94-32.44,177.96,24.09,206.09,103.46,20.66,58.3,17.88,123.22,9.62,183.64-1.39,10.16-3.3,20.36-5.2,30.42ZM900.51,301.57l-1.77-.1c-2.92,2.61.75,5.37,3.13,6.6,3.31,1.72,7.31,2.65,10.7.48,4.79-3.07,1.9-7.67,3.39-10.11.52-.85,2.76-1.28,3.78-2.22,5.05-4.63-.16-14.41-6.39-14.26-.88,4.32,4.49,4.6,5.21,8.62l-2.22,3.79-4.19-.37-1.8,1.11c6.24,11.08-3.22,15.93-9.84,6.45ZM921.4,323.41c-.9-.95-3.2-1.27-3.56.19-.49,1.98,3.71,3.65-.73,9-.82.99-2.97,1.9-3.07,2.37-.49,2.49,3.07,8.4-1.06,10.58l-4.13-1.34c-.95,5.32,6.22,6.4,8.4,2.03,2.06-4.15.22-6.76.71-9,.18-.82,2.25-2.6,2.9-3.88,1.26-2.47,2.62-7.77.54-9.95ZM908.65,330.16c-.4-.41-1.82-1-2.34-.86-1.65.87-4.19,6.73-1.53,7.37l4.48-2.2c.62-1.19.31-3.36-.6-4.31ZM893.12,369.75c10.46-2.78,6.11-17.81-3.76-17.29-1.84,1.73,6.69,5.79,6.69,9.37,0,1.73-1.98,3.9-3.43,4.76l-5.51-1.38c-.96.95,8.78,14.66,2.47,17.15-3.27.15-5-2.89-6.55-5.19-1.17-1.73-1.23-5.77-4.17-4.08,1.5,17.8,22.13,16.87,14.26-3.33Z"/>
  <g>
    <path class="st1" d="M869.14,428.96c-4.98,11.64-21.16,16.07-31,7.38-1.63-1.44-2.86-3.82-4.09-5.65-7.18-10.7-17.81-31.57-15.55-44.52,1.32-7.58,6.73-11.7,11.54-16.98-7.31-29.5.13-60.74,14.23-86.97,1.34-2.5,7.26-10.44,7.51-12.04.4-2.52-4.62-11.25-3.59-17.79,1.08-6.84,14.94-18.04,20.7-22.03,5.08-3.52,12.19-8.02,18.57-7.65,3.21.18,6.71,2.44,9.68,2.24,3.58-.25,10.72-5.15,15.29-6.51,52.51-15.67,107.85,3.05,150.29,34.43,37.26,27.55,59.49,68.61,68.49,113.69,12.68,63.55,6.85,132.34-6.69,195.34-3.33,6.39-9.06,4.09-15.38,4.35-18.16-1.11-36.01-.16-53.97-2.87-.79-.42-1.52-.97-2.05-1.7-2.51-3.49.01-19.31-.4-25.1-.6-8.36-2.24-16.97-9.95-21.54-16.63-9.85-34.91,9.59-37.06,25.47-.61,4.51.92,13.52-1.34,16.66-2.98,4.16-11.78.38-16.41,2.24-14.07-1.14-29.61.79-43.53-.72-4-.43-9.18-2.14-9.91-6.58-3.88-26.67-6.66-55.26-14.05-81.18-5.91-20.73-22.55-25.63-39.37-34.85-1.59-.87-11.39-7.54-11.96-7.14ZM1113.38,554.14c1.9-10.06,3.81-20.27,5.2-30.42,8.26-60.42,11.04-125.34-9.62-183.64-28.13-79.38-124.15-135.91-206.09-103.46-1.9.75-6.88,4.04-7.93,4.14-3.12.28-6.65-6.86-8.8-6.66-5.71,3.55-20.78,12.68-23.58,18.43-4.9,10.09,9.2,33.15,20.22,32.3,17.63-1.36,10.86-25.43,7.34-35.84l2.27-.41c2.59,1.14,6,19.15,5.92,22.41-.14,5.68-3.25,12.91-8.64,15.41-11.42,5.29-20.31-2.91-26.15-11.9-9.89,11.98-15.22,27.73-18.75,42.72-4.17,17.74-6.22,36.09-1.86,54,2.28-1.5,6.54-2.99,5.25.98-.15.45-4.61,3.25-5.65,4.25-1.66,1.61-8.5,8.68-9.37,10.12-3.43,5.66-.16,12.95,1.71,18.58s6.6,19.43,12.52,21.22c10.97,3.31,13.44-11.88,13.57-19.5.11-6.41-2.32-12.2-3.04-18.4l2.52-.03c2.9,5.22,2.58,11.42,5.06,16.81,7.84,16.99,43.21,27.79,56.09,42.11,10.75,11.96,15.59,39.09,18.54,54.94,2.64,14.2,4.28,28.43,5.54,42.82l46.39,1.59c-.02-28.45,20.82-57.17,51.91-44.07,19.86,8.37,23.56,29.78,20.78,49.32l48.65,2.19Z"/>
    <path d="M893.12,369.75c7.87,20.2-12.75,21.13-14.26,3.33,2.94-1.69,3,2.35,4.17,4.08,1.55,2.3,3.28,5.35,6.55,5.19,6.31-2.49-3.43-16.2-2.47-17.15l5.51,1.38c1.46-.86,3.43-3.03,3.43-4.76,0-3.58-8.53-7.64-6.69-9.37,9.87-.52,14.22,14.5,3.76,17.29Z"/>
    <path d="M900.51,301.57c6.62,9.48,16.07,4.63,9.84-6.45l1.8-1.11,4.19.37,2.22-3.79c-.72-4.02-6.09-4.3-5.21-8.62,6.23-.14,11.44,9.63,6.39,14.26-1.02.94-3.26,1.36-3.78,2.22-1.49,2.44,1.4,7.04-3.39,10.11-3.38,2.17-7.38,1.24-10.7-.48-2.38-1.24-6.05-4-3.13-6.6l1.77.1Z"/>
    <path d="M921.4,323.41c2.08,2.18.72,7.48-.54,9.95-.65,1.28-2.72,3.06-2.9,3.88-.49,2.24,1.35,4.86-.71,9-2.17,4.37-9.34,3.29-8.4-2.03l4.13,1.34c4.13-2.18.56-8.09,1.06-10.58.09-.47,2.24-1.38,3.07-2.37,4.44-5.36.24-7.02.73-9,.36-1.46,2.66-1.14,3.56-.19Z"/>
    <path d="M908.65,330.16c.91.95,1.22,3.12.6,4.31l-4.48,2.2c-2.67-.64-.12-6.5,1.53-7.37.52-.13,1.94.45,2.34.86Z"/>
  </g>
</svg>