<?xml version="1.0" encoding="UTF-8"?>
<svg id="_レイヤー_1" data-name="レイヤー_1" xmlns="http://www.w3.org/2000/svg" version="1.1" viewBox="0 0 1190.55 841.89">
  <!-- Generator: Adobe Illustrator 29.4.0, SVG Export Plug-In . SVG Version: 2.1.0 Build 152)  -->
  <defs>
    <style>
      .st0 {
        fill: #8fac73;
      }

      .st1 {
        fill: #a4d8e0;
      }

      .st2 {
        fill: #036eb8;
      }

      .st3 {
        fill: #fff;
      }

      .st4 {
        fill: #ac3629;
      }

      .st5 {
        fill: #ede8e0;
      }

      .st6 {
        fill: #925c46;
      }

      .st7 {
        fill: #d4a400;
      }
    </style>
  </defs>
  <path d="M898.46,600.28c5.13-.11,10.3.2,15.44,0,42.7-1.69,82.92-4.1,125.96-2.32,18.6.77,42.32,1.49,60.49,3.6,22.17,2.58,17.8,20.2,19.02,35.88.59,7.52,2.91,17.98,2.33,25.22-.35,4.39-3.52,8.19-3.44,10.25.08,2.19,4.99,7.5,5.6,11.49.78,5.06-1.17,8.99-1.18,13.65,0,3.29,1.34,6.16,1.34,9.15,0,6.07-4.94,15.89-11.54,16.6v1.69c4.36,2.62,9,7.75,10.04,12.85,1.68,8.28-.02,26.21-2.91,34.31-3.88,10.9-18.71,11.96-28.62,13.71-34.53,6.09-70.99,11.35-105.84,15.46-7.26.86-9.03,2.95-17.7-.03-4.03-1.39-6.69-4.73-9.82-6.2-15.05-7.09-31.28-11.73-46.21-19.01-9.19-4.48-23.76-11.32-25.48-22.57-1.1-7.19-2.04-24.07.16-30.57.66-1.94,2.53-3.56,2.92-5.08,2.4-9.23-7.24-29.7-5.17-41.76.45-2.65,3.08-6.18,2.91-8.09-.2-2.25-3.85-5.57-3.2-8.75l-24.57,52.61c-41.93,73-85.76,79.89-163.88,92.4-49.45,7.92-100.83,15.12-150.84,16.25-44.87,1.01-75.52-3.34-93.06-48.91-1.14-2.95-.89-8.11-4.26-8.34-21.66,3.17-42.94,8.51-64.47,12.26-15.84,2.76-45.01,9.65-59.5,5.28-12.3-3.71-17.99-12.98-25.98-22.05-3.16,3.68-3.8,8.32-8,11.42-8.56,6.31-20.26,4.4-29.75,5.73-35.07,4.88-69.95,8.95-105.17,12.7-10.56,1.13-21.2,6.02-31.08,1.04-9.31-4.69-38.23-26.75-45.73-34.35-11.12-11.25-9.83-44.31,10.87-44.59.13-3.89-3.14-6.13-4.28-10.02-1.9-6.51-7.94-43.53-7.12-48.79.35-2.27,2.75-4.78,2.15-6.76-.22-.74-6.73-5.34-8.48-9.91s-4.48-21.72-3.74-26.58c1.45-9.61,7.78-16.72,17.59-17.87,16.01-1.87,33.11-.4,49.13-1.22,47.5-2.43,96.07-9.57,142.69,4.85,4.14,1.28,8.52,3.9,10.62,7.67,14.95-15,37-19.33,55.05-29.68-9.11-35.5-23.57-69.34-34.17-104.36-2.75-9.08-10.11-29.81-10.09-38.03.03-15.27,12.11-18.27,24.11-21.74,4.11-1.19,12.96-1.84,16.02-3.44,1.64-.85,3.87-5.44,6.32-7.41,7.45-5.98,21.07-6.64,30.32-6.87-5.69-40.99-6.28-82.61-6.79-123.93-39.36-13.13-36.81-59.47-27.22-92.42,8.54-29.34,41.03-43.78,68.34-51.78,3.73-1.09,9.66-1.01,12.57-2.31s20.53-20.27,25.82-24.52c88.2-70.86,241.56-62.82,333.29-2.58,80.24,52.69,116.57,162.91,123.91,254.68,5.27,65.91,7.86,141.23,1.15,206.94-1.54,15.1-4.19,30.25-6.85,45.17ZM632.08,630.87l5.41,3.17c.35,1.73-1.37,2.64-2.89,2.88-4.02.64-16.37-2.93-21.72-3.46-34.2-3.38-112.04,7.71-141.68,25.37-5.48,3.27-10.86,7.66-11.97,14.34-2.92,17.49,1.52,38.98,4.67,56.54,5.64,31.46,10.26,65.92,49.45,69.52,54.74,5.02,135.59-8.27,190.79-17.47,39.58-6.6,77.67-10.83,106.79-40.81,87.4-89.99,81.49-268.12,72.65-384.76-4.99-65.79-21.09-128.64-56.74-184.58-55.74-87.45-170.17-116.86-268.54-100.38-48.43,8.11-94.58,30.62-125.54,69.04l21.15,18.59c.51,4.95-2.27,3.74-5.28,1.82-8.93-5.71-17.48-17.57-29.16-17.84-10.38-.24-47.31,17.88-53.73,26.45-10.35,13.82-18.07,72.52,6.87,76.47s38.47-30.62,45.16-49.64c.76-2.17,4.63-21.56,8.6-15.49,1.42,3.31-.36,7.01-1.19,10.32-3.42,13.59-13.03,37.09-22.35,47.42-2.53,2.81-10.83,8.31-11.47,9.41-2.86,4.93-2.03,24.16-2.17,30.69-.55,25.66.22,52.9,2.25,78.84,1.43,18.32,4.9,36.63,7.9,54.72,17.35,8.91,44.92,20.06,44.75,43.05,1.74.47,1.9-.45,2.87-1.12,3.53-2.44,7.67-7.27,11.62-10.11,28.1-20.2,63.03-27.36,96.77-18.16,17.07,4.66,33.2,15.41,50.09,20.85,1.73,1.48,2.56,4.95,3.14,7.15,10.53,39.55,12.1,79.34,16.35,119.74,2.01,19.14,4.5,38.41,7.16,57.46ZM438.34,450.5c-1.63-9.7-11.43-16.34-19.09-21.51-17.92-12.08-39.25-18.87-61.02-15.08l1.32,5.55c27.73,2.16,57.24,13.71,78.79,31.03ZM431.5,469.94c3.53-2.36,4.35-11.27,2.82-14.85-4.06-9.54-48.9-26.18-59.83-28.26s-23.17-2.09-34.56-.33l27.25,4.2c16.67,3.61,42.63,14.66,55.69,25.54,4.03,3.36,9.83,8.09,8.62,13.7ZM575.69,439.08c-29.02-13.63-61.22-15.95-91.19-3.65-13.82,5.67-31.7,18.16-41.6,29.33-1.23,1.39-7.21,8.29-5.69,9.74,2.3.01,4.64.41,6.84-.58,2.89-1.3,12.65-10.41,17.56-13.33,38.7-23.04,67.44-18.8,110.08-20.39,1.38-.05,4.26.86,3.99-1.13ZM425.77,467.63c-17.87-19.59-47.95-30.63-73.96-34.14-7.44-1.01-18.95-2.31-26.24-2.48-2.29-.05-4.1.79-6.24,1.21,12.47,46.37,31.4,90.61,43.65,137.05,32,4.04,57.8,24.16,81.1,44.74l-26.23-139c.14-2.37,5.39-7.12,7.93-7.38ZM601.76,450.76c-4.4-.9-8.78-2.61-13.21-3.38-22.52-3.89-48.98-3.11-71.63-.15-26.89,3.52-53.49,14.45-72.5,33.97l-19.79-3.26,27.61,147.35,12.76,3.4c6.78-4.54,13.29-8.46,21.18-10.94,30.61-9.64,87.97-8.85,118.38,1.15,2.89.95,19.33,8.75,20.36,7.67-1.47-25.81-5.19-51.48-8-77.18-1.22-11.15-1-23.23-2.3-34.29-2.52-21.37-8.16-43.37-12.84-64.36ZM447.81,629.72c-.79-.78-3.82-6.98-5.99-9.45-5.49-6.27-15.14-14.2-21.89-19.29-10.99-8.29-23.29-15.93-36.11-20.96-11.99,3.92-23.91,8.23-35.51,13.21-9.81,4.22-30.86,13.01-38.94,18.27-5.64,3.67-7.84,7.61-10.38,13.65-13.68,32.53-7.34,88.1,12.53,117.29,6.39,9.39,14.67,21.77,27.82,19.05l119.68-21.06c1.27-.82,1.08-2.05,1.02-3.33-.54-12.08-5.87-27.43-6.79-40.2-.63-8.75-.86-24.54,3.18-32.24,7.42-14.13,46.62-24.17,61.82-27.43,30.06-6.44,60.99-10.49,91.78-9.51l-12.59-5.13c-28.9-7.9-94.58-9.92-120.98,4.91-2.89,1.62-7.44,6.65-10.12,7.11-4.6.79-6.25-1.84-9.67-2.87-2.11-.64-7.88-1.05-8.86-2.02ZM246.07,610.59l-34.78-4.47c-34.79,2.52-69.97,3.98-104.86,6.18,6.74,1.24,17.29,6.63,23.62,7.07,14.6.99,31.81-3.27,46.76-1.93l69.25-6.84ZM129.22,624.41l-41.08-10.4,2.55,13.45,38.19,13.89c1.79.4,1.8.17,1.55-1.55-.75-5.23-1.61-10.04-1.21-15.39ZM267.82,616.3l-132.78,8c.61,3.29-1.58,16.22,1.81,17.02,20.72-3.36,41.95-1.98,62.85-3.31,13.71-.87,27.53-3.57,41.23-4.55,8.51-.61,17.32,1.18,25.62-1.27l1.27-15.89ZM1073.56,622.03c-27.84-2.94-55.99-3.48-84.16-3.39-12.85.04-25.78.6-38.82,1.14-3.12.13-28.12-.9-28.1,1.67l59.08,9.6,92.01-9.02ZM976.29,635.74l-73.81-12.6-.08,12.66,1.43.86,72.46,15.08v-16.01ZM1097.6,625.45c-4.67.42-9.7,1.86-14.31,2.27-25.87,2.28-51.96,3.32-77.81,5.74-3.41.32-23,1.94-23.52,4.18l-1.09,14.1,117.86-11.45-1.12-14.83ZM257.52,638.02c-2.54-2.48-18.94,10.08-20,12.6-2.03,4.83.32,11.02.56,15.98,10.18-7.15,21.02-14.37,19.44-28.59ZM241.5,639.18c-23.45,1.88-46.82,5.45-70.44,4.51l-21.12,2.32c25.01-1.4,52.45,3.66,77.23,1.14,5.92-.6,10.77-3.14,14.32-7.98ZM976.29,657.47l-73.25-14.87,1.81,13.85,69.7,18.18,1.74-17.16ZM980.86,657.46v17.15l119.04-13.71-1.02-14.2c-1.47-2.05-14.59,1.33-17.88,1.6-7.85.64-16.15.44-24.01,1.16-25.37,2.35-50.68,6.21-76.12,8ZM231.19,651.74c-12.97,1.59-26.39,1.5-39.53,1.19-2.71-.06-5.21-1.16-7.92-1.24-25.15-.7-50.14-.73-75.02-4.52l2.22,15.51c11.24-.07,22.73,2.37,33.79,2.83,19.79.83,39.81-.84,59.61-.09,4.43.17,25.74,3.75,27.49,1.27l-.65-14.94ZM271.25,658.59c-6.59-8.08-13.6-3.84-18.31,3.43l18.31-3.43ZM105.6,667.45c-.5-3.26-2.51-5.44-6.02-5.41l1.81,11.56,50.82,14.73-.68-13.84c-14.69-5.64-30.44-5.58-45.94-7.03ZM273.54,663.18c-11.96,3.9-25.54,3.02-36.09,10.27-26.41-3.48-53.13-1.58-79.44,2.36l-.07,13.67,115.59-11.45v-14.85ZM952.14,674.72l-30.78-6.97c-.43,2.5,3.59,4.28,5.36,5.5,5.68,3.91,18.58,10.61,24.98,12.78,2.39.81,1.23.27,1.15-1.13-.2-3.32-.98-6.75-.71-10.18ZM1086.17,667.75c-24.52.58-48.49,6.16-72.69,9.14-8.35,1.03-28.85,4.5-35.49,4.41-3.24-.04-18.17-6.23-20.01-4.41l1.16,11.45c9.15-1.27,18.93-2.82,27.98-1.1l100.19-.06-1.13-19.44ZM945.37,688.35c-11.54-1.77-18.58-13.59-30.89-9.15-.27,1.64,1.93,1.5,3.14,1.98,6.02,2.37,13.51,4.83,19.75,6.58,1.52.42,7.3,2.98,7.99.6ZM153.17,695.38l-51.3-16.19,4.09,15.92,48.55,17.23-1.33-16.96ZM273.54,683.76l-114.44,11.44,1.01,17.62,113.44-11.91v-17.15ZM976.27,719.21l-1.08-16.63-68.71-18.81c-.05,3.54-.21,11.57,3.03,13.54l66.77,21.9ZM1031.22,692.92c-23.28.87-46.75-3.61-69.82.56,8.99,1.95,17.56,6.16,26.96,5.19l42.86-5.75ZM1102.19,691.76l-120.19,12.58v14.87s119.03-13.73,119.03-13.73l1.16-13.72ZM171.49,727.39l-62.76-24.19,3.44,14.28c7.68,1.23,58.31,29.35,60.65,26.87l-1.33-16.97ZM941.94,713.5c-9.61-.24-19.24-11.5-27.46-2.87,7.66.97,15.82,3.39,23.48,3.98,1.26.1,4.26.85,3.97-1.11ZM177.4,727.21v18.29l80.74-26.25.53-11.49-5.02.13-76.24,19.31ZM1011.77,721.49h50.93l24.6-8.02c.22-1.95-3.94-1.24-5.19-1.18-20.53.98-41,6.21-61.6,7.07l-8.74,2.13ZM202.58,714.64l-27.9,2.41-9.86,2.13,10.77,3.39,26.98-7.93ZM1059.84,727.2c-26.38-1.33-54.5,1.81-80.68,0-9.2-.64-66.81-12.78-69.26-10.28l1.14,17.16,150.49,14.88-1.69-21.75ZM1090.73,718.07l-26.33,8.01,4.02,19.4c7.97-8.55,25.07-13.36,22.31-27.42ZM267.82,734.06c-2.31-4.02-9.83-7.06-14.27-6.9l-33.79,11.48,48.06-4.57ZM157.94,744.38c-10.43-2.42-24.13-14.21-34.04-15.76-8.05-1.26-18.22,3.24-26.61,2.04l29.44,15.74,15.75.25,15.45-2.26ZM129.33,767.22l-1.1-14.32-35.5-17.69,1.15,6.27c3.73,1.77,33.12,28.39,35.45,25.74ZM1096.45,739.81c-3.06-.16-4.18-4.05-7.15-3.29l-8.86,6.69,15.44-1.13.57-2.27ZM275.84,738.64c-25.37,1.74-50.7,5.05-75.97,8.16-7.47.92-15.96,3.77-23.05,4.42-14.16,1.29-28.81-1.45-42.92,1.15l1.16,18.29c38.76-4.68,77.58-9.52,116.31-14.72,4.21-.56,22.12-.72,23.3-3.3l1.16-14.01ZM974.98,758.24c-17.12-6.21-34.64-11.28-52.26-15.83-1.68-.44-3.07-1.92-4.57-2.29-3.84-.95-7.86-.42-11.67-1.48-.42.45,1.2,10.82,2.26,12.02,2.14,2.43,18.05,9.26,22.14,11.04,12.04,5.27,24.62,9.51,36.69,14.8,2.52,1.11,5.95,5.55,6.43,1.6.36-2.95,1.79-18.61.98-19.87ZM1011.76,748.95l-67.51-6.86,36.11,11.47,31.41-4.6ZM1102.18,746.66c-8.3,1.47-18.61,1.12-26.61,2.55-5.59,1-5.07,5.49-10.61,5.5-28.06-5.93-56.05,1.01-83.98,4.63l-1.25,21.61,118.77-17.92c4.52-4.29,1.99-11,3.68-16.37Z"/>
  <path class="st3" d="M632.08,630.87c-2.66-19.05-5.15-38.32-7.16-57.46-4.25-40.39-5.81-80.18-16.35-119.74-.59-2.2-1.41-5.67-3.14-7.15-16.89-5.44-33.02-16.19-50.09-20.85-33.74-9.2-68.66-2.04-96.77,18.16-3.95,2.84-8.1,7.67-11.62,10.11-.97.67-1.14,1.59-2.87,1.12.17-22.99-27.4-34.13-44.75-43.05-3-18.1-6.46-36.4-7.9-54.72-2.03-25.94-2.8-53.18-2.25-78.84.14-6.53-.69-25.76,2.17-30.69.64-1.1,8.94-6.6,11.47-9.41,9.31-10.33,18.93-33.84,22.35-47.42.83-3.31,2.6-7.01,1.19-10.32-3.96-6.07-7.83,13.32-8.6,15.49-6.68,19.02-19.3,53.74-45.16,49.64s-17.22-62.64-6.87-76.47c6.42-8.58,43.34-26.7,53.73-26.45,11.67.27,20.23,12.14,29.16,17.84,3.01,1.92,5.79,3.13,5.28-1.82l-21.15-18.59c30.96-38.43,77.11-60.93,125.54-69.04,98.36-16.47,212.79,12.93,268.54,100.38,35.65,55.93,51.75,118.79,56.74,184.58,8.84,116.64,14.75,294.77-72.65,384.76-29.12,29.99-67.21,34.22-106.79,40.81-55.2,9.2-136.04,22.49-190.79,17.47-39.18-3.6-43.8-38.06-49.45-69.52-3.15-17.56-7.59-39.05-4.67-56.54,1.11-6.67,6.49-11.07,11.97-14.34,29.64-17.67,107.48-28.75,141.68-25.37,5.34.53,17.7,4.1,21.72,3.46,1.52-.24,3.24-1.15,2.89-2.88l-5.41-3.17ZM685.56,179.52l-3.48.5c-3.32,2.44,2.27,23.24,3.35,27.65,5.51,22.64,16.67,54.25,44.22,56.44,30.22,2.4,52.16-46.8,41.79-71.48-11.45-27.27-70.92-59.25-99.23-47.63-3.94,1.62-25.24,15.2-20.96,19.64,9.27-2.14,14.79-11.57,24.39-15.07,24.83-9.07,77.27,20.17,89.41,42.59,11.89,21.98-9.01,70.47-37.42,65.96-30.39-4.82-37.53-54.32-42.06-78.61ZM466.95,276.71c-8.78-.38-1.99,10.92-2.18,16.58-.26,7.89-5.73,10.01-13.02,8.32-4.58-1.06-4.2-5.63-8.23-6.61-1.71.4-2.54,12.48-10.59,14.57-7.45,1.94-11.51-1.26-12.65-8.58-.64-4.14,2.34-8.36-3.08-9.42-2.42.49-1.95,8.87-1.73,10.86,1.36,12.78,12.33,17.21,22.81,10.21,2.2-1.47,5.98-6.8,7.67-7.13,1.41-.28,6.98,2.42,11.26,2.09,16.94-1.3,13.88-19.41,9.74-30.9ZM583.71,280.13l-4.61.74c-5.16,19.93,14.19,45.04,33.21,25.56,4.35,10.15,22.26,21.79,30.75,9.55,3.31-4.77,5.41-17.5.73-22.12-6.56,2.56-.55,10.68-4.88,17.97-7.54,12.7-22.96-8.51-27.26-14.49-5.19,1.14-2.85,7.16-7.77,9.16-15.97,6.49-21.99-14.08-20.16-26.37ZM521.58,319.24c-1.43.43-3.08,1.94-2.93,3.57,3.46,8.16,8.75,8.53,13.43,1.13l-.38-2.68c-2.52-2.26-6.87-3.01-10.12-2.02ZM528.03,339.18c-.71-.51-.91-2.45-2.26-2.9-4.45-1.47-11.13,9.46-18.34,9.83-8.99.46-6.56-9.44-9-9.95-5.88,1.71-4.7,7.6-1.17,11.47,7.13,7.82,20.22,1.57,26.53-4.53,7.46,5.53,14.18,8.92,23.88,7.91,8.43-.87,14.23-7.42,7.99-14.85-6.56,1.18-.19,7.85-6.89,9.11-8.48,1.59-14.25-1.41-20.74-6.1ZM511.35,780.67c1.09-1.44,3.51-14.68,3.73-17.4,1.59-20.05-.79-43.95-8.32-62.66-3.77-9.37-10.53-20.69-20.93-23.31l-2.83,3.58c15.61,7.05,21.19,26.26,24.4,41.97,3.09,15.11,3.72,28.36,1.81,43.7-.44,3.55-5.62,14.51-.48,15.26.76-.37,2.2-.57,2.63-1.13Z"/>
  <path class="st6" d="M601.76,450.76c4.68,20.99,10.32,42.99,12.84,64.36,1.31,11.06,1.08,23.14,2.3,34.29,2.81,25.7,6.53,51.37,8,77.18-1.02,1.08-17.47-6.72-20.36-7.67-30.41-10-87.77-10.79-118.38-1.15-7.89,2.48-14.4,6.4-21.18,10.94l-12.76-3.4-27.61-147.35,19.79,3.26c19.02-19.52,45.61-30.45,72.5-33.97,22.65-2.97,49.12-3.74,71.63.15,4.43.77,8.81,2.48,13.21,3.38ZM448.64,483.67l-3.48.5c-1.6,1.18-.2,15.41.19,18.22,2.27,16.38,6.63,33.53,9.01,50.45,2.8,19.89,3.1,47.07,8.34,65.99.52,1.87,1.98,7.21,4.82,6.6,3.69-.8.09-8.83-.25-11.16-4.45-30.71-7.15-61.53-11.94-92.13-2-12.8-5.6-25.42-6.7-38.48Z"/>
  <path class="st3" d="M447.81,629.72c.98.97,6.75,1.38,8.86,2.02,3.42,1.03,5.07,3.66,9.67,2.87,2.68-.46,7.23-5.49,10.12-7.11,26.4-14.82,92.08-12.8,120.98-4.91l12.59,5.13c-30.79-.97-61.72,3.07-91.78,9.51-15.2,3.26-54.4,13.3-61.82,27.43-4.05,7.7-3.81,23.49-3.18,32.24.92,12.78,6.25,28.13,6.79,40.2.06,1.27.25,2.5-1.02,3.33l-119.68,21.06c-13.14,2.71-21.43-9.66-27.82-19.05-19.87-29.19-26.21-84.76-12.53-117.29,2.54-6.03,4.73-9.97,10.38-13.65,8.08-5.26,29.13-14.05,38.94-18.27,11.6-4.99,23.51-9.29,35.51-13.21,12.82,5.04,25.12,12.67,36.11,20.96,6.75,5.09,16.4,13.02,21.89,19.29,2.16,2.47,5.19,8.67,5.99,9.45ZM313.17,620.96c-1.52.45-2.2,1.72-1.32,3.38.8,1.52,14.52,8.68,17.82,11.93,20.77,20.45,24.82,78.32,14.02,104.42-1.29,3.12-11.09,14.02-4.33,14,2.68,0,7.67-7.19,8.78-9.56,14.08-29.91,7.58-95.24-19.76-116.74-2.95-2.32-11.73-8.48-15.22-7.45Z"/>
  <path class="st6" d="M425.77,467.63c-2.54.26-7.8,5.01-7.93,7.38l26.23,139c-23.3-20.58-49.11-40.7-81.1-44.74-12.25-46.44-31.17-90.68-43.65-137.05,2.14-.42,3.95-1.26,6.24-1.21,7.3.17,18.8,1.47,26.24,2.48,26.01,3.51,56.1,14.55,73.96,34.14Z"/>
  <path class="st0" d="M1059.84,727.2l1.69,21.75-150.49-14.88-1.14-17.16c2.45-2.5,60.06,9.64,69.26,10.28,26.18,1.81,54.3-1.32,80.68,0Z"/>
  <path class="st4" d="M1102.18,746.66c-1.69,5.37.84,12.08-3.68,16.37l-118.77,17.92,1.25-21.61c27.93-3.62,55.92-10.56,83.98-4.63,5.54,0,5.02-4.49,10.61-5.5,8-1.44,18.31-1.08,26.61-2.55Z"/>
  <path class="st0" d="M275.84,738.64l-1.16,14.01c-1.18,2.58-19.09,2.73-23.3,3.3-38.73,5.2-77.55,10.03-116.31,14.72l-1.16-18.29c14.11-2.6,28.76.13,42.92-1.15,7.09-.65,15.58-3.5,23.05-4.42,25.27-3.1,50.6-6.41,75.97-8.16Z"/>
  <path class="st2" d="M267.82,616.3l-1.27,15.89c-8.3,2.45-17.11.66-25.62,1.27-13.69.98-27.51,3.68-41.23,4.55-20.9,1.33-42.13-.05-62.85,3.31-3.4-.8-1.2-13.74-1.81-17.02l132.78-8Z"/>
  <polygon class="st4" points="273.54 683.76 273.54 700.91 160.11 712.82 159.1 695.2 273.54 683.76"/>
  <path class="st6" d="M980.86,657.46c25.44-1.79,50.75-5.65,76.12-8,7.87-.73,16.16-.52,24.01-1.16,3.29-.27,16.42-3.66,17.88-1.6l1.02,14.2-119.04,13.71v-17.15Z"/>
  <path class="st6" d="M1097.6,625.45l1.12,14.83-117.86,11.45,1.09-14.1c.52-2.24,20.11-3.86,23.52-4.18,25.85-2.41,51.94-3.46,77.81-5.74,4.62-.41,9.64-1.85,14.31-2.27Z"/>
  <path class="st1" d="M231.19,651.74l.65,14.94c-1.75,2.48-23.07-1.1-27.49-1.27-19.8-.74-39.82.92-59.61.09-11.06-.46-22.55-2.9-33.79-2.83l-2.22-15.51c24.88,3.8,49.87,3.83,75.02,4.52,2.71.08,5.21,1.17,7.92,1.24,13.14.31,26.56.4,39.53-1.19Z"/>
  <polygon class="st5" points="1102.19 691.76 1101.03 705.48 982.01 719.21 982 704.34 1102.19 691.76"/>
  <path class="st2" d="M1086.17,667.75l1.13,19.44-100.19.06c-9.05-1.72-18.83-.17-27.98,1.1l-1.16-11.45c1.84-1.82,16.77,4.36,20.01,4.41,6.65.09,27.15-3.38,35.49-4.41,24.2-2.98,48.17-8.56,72.69-9.14Z"/>
  <path class="st5" d="M575.69,439.08c.27,1.99-2.6,1.08-3.99,1.13-42.64,1.59-71.39-2.65-110.08,20.39-4.91,2.92-14.67,12.03-17.56,13.33-2.2.99-4.55.59-6.84.58-1.52-1.45,4.46-8.36,5.69-9.74,9.9-11.17,27.78-23.66,41.6-29.33,29.97-12.29,62.17-9.98,91.19,3.65Z"/>
  <path class="st4" d="M273.54,663.18v14.85s-115.6,11.45-115.6,11.45l.07-13.67c26.31-3.94,53.03-5.84,79.44-2.36,10.54-7.25,24.13-6.37,36.09-10.27Z"/>
  <polygon class="st6" points="177.4 727.21 253.65 707.9 258.67 707.77 258.14 719.25 177.4 745.5 177.4 727.21"/>
  <path class="st5" d="M974.98,758.24c.81,1.26-.62,16.92-.98,19.87-.48,3.95-3.91-.5-6.43-1.6-12.07-5.29-24.65-9.53-36.69-14.8-4.09-1.79-20-8.62-22.14-11.04-1.06-1.2-2.68-11.57-2.26-12.02,3.81,1.05,7.84.53,11.67,1.48,1.5.37,2.89,1.85,4.57,2.29,17.61,4.55,35.14,9.62,52.26,15.83Z"/>
  <polygon class="st5" points="976.29 657.47 974.55 674.63 904.85 656.45 903.04 642.6 976.29 657.47"/>
  <polygon class="st5" points="976.29 635.74 976.29 651.74 903.82 636.66 902.4 635.8 902.48 623.14 976.29 635.74"/>
  <path class="st6" d="M1073.56,622.03l-92.01,9.02-59.08-9.6c-.02-2.57,24.98-1.54,28.1-1.67,13.04-.53,25.97-1.1,38.82-1.14,28.17-.09,56.32.45,84.16,3.39Z"/>
  <path class="st5" d="M976.27,719.21l-66.77-21.9c-3.24-1.97-3.07-10-3.03-13.54l68.71,18.81,1.08,16.63Z"/>
  <path class="st5" d="M171.49,727.39l1.33,16.97c-2.33,2.47-52.96-25.64-60.65-26.87l-3.44-14.28,62.76,24.19Z"/>
  <path class="st2" d="M246.07,610.59l-69.25,6.84c-14.96-1.34-32.17,2.93-46.76,1.93-6.33-.43-16.89-5.82-23.62-7.07,34.89-2.2,70.07-3.65,104.86-6.18l34.78,4.47Z"/>
  <polygon class="st5" points="153.17 695.38 154.51 712.34 105.96 695.1 101.87 679.19 153.17 695.38"/>
  <path class="st5" d="M438.34,450.5c-21.55-17.33-51.06-28.88-78.79-31.03l-1.32-5.55c21.77-3.79,43.1,3,61.02,15.08,7.66,5.17,17.46,11.8,19.09,21.51Z"/>
  <path class="st5" d="M431.5,469.94c1.21-5.61-4.59-10.34-8.62-13.7-13.06-10.88-39.03-21.93-55.69-25.54l-27.25-4.2c11.39-1.76,23.21-1.84,34.56.33s55.77,18.73,59.83,28.26c1.52,3.58.7,12.48-2.82,14.85Z"/>
  <path class="st5" d="M105.6,667.45c15.5,1.46,31.25,1.4,45.94,7.03l.68,13.84-50.82-14.73-1.81-11.56c3.5-.03,5.51,2.15,6.02,5.41Z"/>
  <path class="st5" d="M129.22,624.41c-.39,5.35.47,10.16,1.21,15.39.25,1.72.24,1.95-1.55,1.55l-38.19-13.89-2.55-13.45,41.08,10.4Z"/>
  <path class="st0" d="M157.94,744.38l-15.45,2.26-15.75-.25-29.44-15.74c8.39,1.2,18.56-3.3,26.61-2.04,9.9,1.55,23.61,13.34,34.04,15.76Z"/>
  <path class="st5" d="M1090.73,718.07c2.76,14.06-14.34,18.86-22.31,27.42l-4.02-19.4,26.33-8.01Z"/>
  <path class="st5" d="M129.33,767.22c-2.34,2.65-31.72-23.97-35.45-25.74l-1.15-6.27,35.5,17.69,1.1,14.32Z"/>
  <path class="st1" d="M241.5,639.18c-3.56,4.84-8.4,7.37-14.32,7.98-24.78,2.53-52.23-2.54-77.23-1.14l21.12-2.32c23.62.93,46.99-2.64,70.44-4.51Z"/>
  <path class="st5" d="M257.52,638.02c1.57,14.22-9.27,21.44-19.44,28.59-.24-4.96-2.59-11.16-.56-15.98,1.06-2.52,17.46-15.08,20-12.6Z"/>
  <polygon class="st4" points="1011.76 748.95 980.35 753.55 944.24 742.09 1011.76 748.95"/>
  <path class="st0" d="M1011.77,721.49l8.74-2.13c20.6-.86,41.07-6.09,61.6-7.07,1.25-.06,5.41-.76,5.19,1.18l-24.6,8.02h-50.93Z"/>
  <path class="st7" d="M1031.22,692.92l-42.86,5.75c-9.4.97-17.97-3.24-26.96-5.19,23.07-4.17,46.54.31,69.82-.56Z"/>
  <path class="st0" d="M267.82,734.06l-48.06,4.57,33.79-11.48c4.44-.15,11.96,2.89,14.27,6.9Z"/>
  <path class="st5" d="M952.14,674.72c-.27,3.42.51,6.85.71,10.18.08,1.4,1.24,1.94-1.15,1.13-6.41-2.16-19.3-8.87-24.98-12.78-1.77-1.22-5.8-3-5.36-5.5l30.78,6.97Z"/>
  <polygon class="st6" points="202.58 714.64 175.59 722.58 164.82 719.19 174.68 717.06 202.58 714.64"/>
  <path class="st7" d="M945.37,688.35c-.7,2.39-6.47-.17-7.99-.6-6.24-1.74-13.74-4.2-19.75-6.58-1.21-.48-3.41-.33-3.14-1.98,12.31-4.44,19.35,7.38,30.89,9.15Z"/>
  <path class="st0" d="M941.94,713.5c.29,1.97-2.71,1.21-3.97,1.11-7.67-.59-15.82-3-23.48-3.98,8.22-8.63,17.84,2.63,27.46,2.87Z"/>
  <path class="st4" d="M271.25,658.59l-18.31,3.43c4.71-7.27,11.72-11.52,18.31-3.43Z"/>
  <path class="st4" d="M1096.45,739.81l-.57,2.27-15.44,1.13,8.86-6.69c2.97-.75,4.09,3.13,7.15,3.29Z"/>
  <path d="M685.56,179.52c4.53,24.29,11.68,73.79,42.06,78.61,28.41,4.51,49.31-43.99,37.42-65.96-12.14-22.43-64.58-51.66-89.41-42.59-9.59,3.5-15.12,12.93-24.39,15.07-4.28-4.44,17.02-18.02,20.96-19.64,28.31-11.62,87.78,20.36,99.23,47.63,10.37,24.68-11.57,73.88-41.79,71.48-27.56-2.19-38.71-33.8-44.22-56.44-1.08-4.42-6.66-25.21-3.35-27.65l3.48-.5Z"/>
  <path d="M583.71,280.13c-1.83,12.28,4.19,32.86,20.16,26.37,4.92-2,2.58-8.01,7.77-9.16,4.31,5.98,19.73,27.18,27.26,14.49,4.33-7.29-1.68-15.41,4.88-17.97,4.68,4.61,2.58,17.34-.73,22.12-8.49,12.25-26.4.6-30.75-9.55-19.03,19.48-38.37-5.63-33.21-25.56l4.61-.74Z"/>
  <path d="M511.35,780.67c-.43.56-1.88.76-2.63,1.13-5.14-.75.04-11.71.48-15.26,1.91-15.34,1.28-28.59-1.81-43.7-3.21-15.71-8.79-34.92-24.4-41.97l2.83-3.58c10.39,2.63,17.16,13.94,20.93,23.31,7.53,18.71,9.92,42.61,8.32,62.66-.22,2.72-2.63,15.96-3.73,17.4Z"/>
  <path d="M466.95,276.71c4.14,11.49,7.2,29.6-9.74,30.9-4.28.33-9.85-2.37-11.26-2.09-1.69.33-5.48,5.66-7.67,7.13-10.48,7.01-21.45,2.58-22.81-10.21-.21-2-.69-10.37,1.73-10.86,5.42,1.06,2.43,5.28,3.08,9.42,1.14,7.33,5.2,10.52,12.65,8.58,8.05-2.1,8.88-14.18,10.59-14.57,4.04.98,3.65,5.55,8.23,6.61,7.29,1.69,12.76-.43,13.02-8.32.19-5.66-6.61-16.96,2.18-16.58Z"/>
  <path d="M528.03,339.18c6.5,4.69,12.26,7.69,20.74,6.1,6.69-1.26.33-7.93,6.89-9.11,6.24,7.43.43,13.98-7.99,14.85-9.7,1.01-16.41-2.38-23.88-7.91-6.31,6.11-19.41,12.36-26.53,4.53-3.53-3.87-4.7-9.77,1.17-11.47,2.43.51,0,10.41,9,9.95,7.21-.37,13.89-11.3,18.34-9.83,1.36.45,1.55,2.38,2.26,2.9Z"/>
  <path d="M521.58,319.24c3.25-.99,7.6-.24,10.12,2.02l.38,2.68c-4.68,7.4-9.97,7.03-13.43-1.13-.15-1.63,1.5-3.14,2.93-3.57Z"/>
  <path d="M448.64,483.67c1.11,13.06,4.7,25.69,6.7,38.48,4.78,30.6,7.49,61.42,11.94,92.13.34,2.33,3.94,10.36.25,11.16-2.83.61-4.3-4.73-4.82-6.6-5.23-18.92-5.54-46.1-8.34-65.99-2.38-16.92-6.74-34.08-9.01-50.45-.39-2.82-1.79-17.05-.19-18.22l3.48-.5Z"/>
  <path d="M313.17,620.96c3.49-1.03,12.27,5.13,15.22,7.45,27.33,21.5,33.84,86.82,19.76,116.74-1.11,2.37-6.1,9.55-8.78,9.56-6.76.02,3.04-10.89,4.33-14,10.8-26.11,6.75-83.97-14.02-104.42-3.3-3.25-17.02-10.41-17.82-11.93-.88-1.66-.2-2.93,1.32-3.38Z"/>
</svg>