<?xml version="1.0" encoding="UTF-8"?>
<svg xmlns="http://www.w3.org/2000/svg" version="1.1" viewBox="0 0 841.89 1190.55">
  <!-- Generator: Adobe Illustrator 29.4.0, SVG Export Plug-In . SVG Version: 2.1.0 Build 152)  -->
  <defs>
    <style>
      .st0 {
        fill: #fff;
      }

      .st1 {
        fill: #ffde00;
      }

      .st2 {
        display: none;
      }
    </style>
  </defs>
  <g id="_レイヤー_1" data-name="レイヤー_1" class="st2">
    <path class="st0" d="M691.08,788.87c21.15-38.42,38.22-81.55,48.79-124.24,18.25-73.76-5.95-177.83-28.21-249.84-41.69-134.9-148.27-301.95-303.29-312.36-84.19-5.65-184.43,29.5-242.75,90.84-22.08-1.75-45.81-1.2-64.52,11.92-24.48,17.17-53.38,80.69-55.42,110.2-1.78,25.73,2.45,64.56,35.47,65.72-4.57,77.86,20.88,150.84,53.84,219.72,22.86,47.77,50.83,95.36,79.32,139.98,16.45,25.76,33.22,49.93,53.81,72.63-15.24,19.51-29.96,39.34-43.53,60.06-9.71,14.83-45.65,68.56-48.12,82.09-4.37,23.88,14.59,40.61,30.31,55.47,33.66,31.82,125.36,100.93,171.96,97.68,8.04-.56,18.03-5.01,24.41-9.84,15.31-11.59,37.87-56.49,50.57-75.08,11.36-16.63,23.63-33.62,37.51-48.21,19.67,5.22,39.45,10.67,59.95,12.01,46.68,3.05,133.44-2.84,159.81-48.05,18.77-32.19,26.84-96.92,17.46-132.64-5.46-20.77-18.52-20.81-37.35-18.05Z"/>
    <path d="M691.08,788.87c18.84-2.76,31.9-2.71,37.35,18.05,9.39,35.72,1.31,100.45-17.46,132.64-26.36,45.22-113.12,51.1-159.81,48.05-20.5-1.34-40.27-6.79-59.95-12.01-13.88,14.6-26.15,31.58-37.51,48.21-12.7,18.59-35.25,63.48-50.57,75.08-6.39,4.83-16.37,9.28-24.41,9.84-46.61,3.25-138.3-65.86-171.96-97.68-15.71-14.85-34.68-31.58-30.31-55.47,2.48-13.53,38.41-67.26,48.12-82.09,13.57-20.73,28.29-40.56,43.53-60.06-20.59-22.7-37.37-46.86-53.81-72.63-28.49-44.63-56.46-92.22-79.32-139.98-32.96-68.87-58.41-141.86-53.84-219.72-33.01-1.16-37.25-39.99-35.47-65.72,2.04-29.51,30.94-93.03,55.42-110.2,18.71-13.12,42.44-13.67,64.52-11.92,58.33-61.34,158.57-96.49,242.75-90.84,155.01,10.4,261.59,177.46,303.29,312.36,22.26,72.01,46.46,176.08,28.21,249.84-10.57,42.7-27.64,85.83-48.79,124.24ZM423.8,126.42c-28.69-5.27-58.31-2.52-87.02,2.63-102.79,18.43-178.83,78.49-217.36,175.55-48.84,123.06,13.34,256.22,75.03,362.41,24.94,42.92,52.96,90.68,85.99,127.6,2.51,2.8,9.22,10.9,11.4,12.59.99.77,1.29,1.48,2.88,1.09,4.87-7.24,11.59-15.17,17.71-21.71,17.44-18.64,38.36-36.79,59.16-51.64,4.7-3.36,18.25-13.43,22.56-15.14,4.23-1.68,6.19,1.56,2.67,4.97-4.65,4.51-16.01,10.16-22,14.55-69.9,51.24-120.91,124.49-165.08,198.14-3,5.01-13.08,20.83-13.08,25.6,0,9.17,21.29,28.82,28.38,35.42,29.69,27.64,105.93,84.78,145.65,88.49,3.94.37,7.82.26,11.67-.88,14.28-4.2,30.28-38.63,38.68-51.55,22.07-33.94,45.01-67.68,75.26-94.93,43.22-38.93,97.86-64.09,137.7-107.88,51.79-56.92,95.3-163.87,91.33-241.02-3.51-68.26-27.31-160.07-52.81-223.6-29.76-74.14-103.15-179.26-174.85-216.93-5.55-2.91-13.3-7.12-19.04-7.23,23.78,23.55,41.42,51.77,32.79,86.49-12.17,48.98-53.04,68.27-82.39,17.94-11.07-18.98-15.19-45.85-15.49-67.95-.02-1.36,1.33-2.32,2.62-1.89l.13.04c1.67.57,2.8,2.12,2.85,3.88.67,23.66,5,48.97,18.58,68.65,19.88,28.81,43.89,29.17,60.92-2.62,14.96-27.94,11.99-51.61-4.69-77.59-9.39-14.63-38.07-44.74-56.72-42.11s-44.2,30.7-53.15,46.72c-.28.5-.79.82-1.36.84l-2.05.09c-.8.04-1.49-.58-1.51-1.38-.05-2.08.39-3.77,1.4-5.82,2.04-4.13,13.79-17.47,17.53-21.3,7.75-7.93,17.02-13.78,25.71-20.53ZM165.66,215.51c-12.1-2.69-24.48-2.27-36.6.51-19.07,4.39-26.49,17.03-35.84,32.69-14.92,25.01-38.57,78.82-20.31,105.78,7.33,10.81,22.1,1.95,26.98-6.59,3.59-6.28,7.66-26.95,10.92-35.92,8.02-22.11,19.96-46.94,32.67-66.7,6.72-10.46,14.93-19.74,22.18-29.78ZM492.34,949.95c-.42,2.13.98,2.83,2.6,3.65,3.93,2,23.05,7.64,27.96,8.59,34.26,6.69,95.67,6.74,128.18-6.01,27.57-10.81,39.13-16.77,49.16-45.65,10.9-31.39,13.88-68.75,6.24-101.16l-1.05-.76c-14.98,4.07-30.21,1.33-45.18-.97-13.77,18.81-29.15,36.28-46.82,51.49-37.64,32.38-82.19,55.34-118.26,89.67-.72.69-1.83,1.05-2.82,1.13Z"/>
    <path class="st0" d="M423.8,126.42c-8.69,6.75-17.96,12.61-25.71,20.53-3.74,3.83-15.49,17.18-17.53,21.3-1.24,2.5-1.62,4.48-1.29,7.27l1.79-.08c1.56-.07,3-.91,3.8-2.26,9.61-16.2,34.95-42.93,52.38-45.39,18.65-2.63,47.33,27.48,56.72,42.11,16.68,25.98,19.65,49.65,4.69,77.59-17.03,31.8-41.03,31.43-60.92,2.62-14.14-20.49-18.26-47.1-18.65-71.59l-5.54-1.88c-.02,22.59,3.97,50.94,15.51,70.73,29.35,50.34,70.23,31.04,82.39-17.94,8.62-34.72-9.02-62.94-32.79-86.49,5.74.11,13.49,4.32,19.04,7.23,71.69,37.67,145.08,142.79,174.85,216.93,25.5,63.52,49.31,155.34,52.81,223.6,3.97,77.15-39.55,184.1-91.33,241.02-39.84,43.79-94.48,68.95-137.7,107.88-30.25,27.25-53.19,60.99-75.26,94.93-8.4,12.92-24.41,47.35-38.68,51.55-3.84,1.13-7.72,1.24-11.67.88-39.73-3.71-115.97-60.85-145.65-88.49-7.09-6.6-28.38-26.25-28.38-35.42,0-4.77,10.08-20.6,13.08-25.6,44.17-73.65,95.17-146.9,165.08-198.14,5.99-4.39,17.35-10.04,22-14.55,3.52-3.41,1.56-6.65-2.67-4.97-4.31,1.71-17.86,11.79-22.56,15.14-20.79,14.85-41.72,33-59.16,51.64-6.12,6.54-12.84,14.48-17.71,21.71-1.58.39-1.88-.32-2.88-1.09-2.17-1.7-8.89-9.79-11.4-12.59-33.03-36.92-61.06-84.67-85.99-127.6-61.69-106.18-123.87-239.35-75.03-362.41,38.53-97.07,114.58-157.13,217.36-175.55,28.7-5.15,58.33-7.9,87.02-2.63ZM316.45,324.01c-.64.43-3.15,10.71-5.74,14.27-11.92,16.38-22.05,1.13-20.42-13.57.42-3.78,6.05-12.14.43-12.17-3.22-.01-4.06,4.22-4.8,6.66-7.65,25.41,16.21,45.24,32.22,18.53,12.73,26.3,45.66,23.43,40.47-10.8-.7-4.61-5.58-7.7-6.7-3.36-.51,1.99,1.73,4.96,1.82,7.62.13,3.95-1.73,15.31-5.59,17.09-14.16,6.52-26.76-10.62-27.71-23.14-.53-1.32-3.35-1.55-3.98-1.14ZM154.26,365.12c5.93,3.21,8.97,6.78,15.4,2.28,10.5-7.35,8.73-23.62,7.48-34.89-.61-5.48-5.25-5.24-5.82-1.05-.47,3.43,1.67,11.72,1.24,17.14-1.33,16.63-13.55,22.37-16.62,2.83-4.8-6.52-5.6,8.64-6.58,11.66-2.44,7.56-8.12,15.92-17.16,13.22-4.5-1.35-3.27-10.96-2.99-15.08.13-1.99,1.94-4.66,1.81-5.83-.25-2.17-3.17-4.07-5.2-.99-3.96,6.01-4.25,23.53,3.78,26.8,12.06,4.91,21.59-5.35,24.67-16.08ZM224.7,379.15c-21.69.31-.95,21.87,4.94,3.63-.06-2.38-2.91-3.66-4.94-3.63ZM226.22,407.38c9.13,7.88,34.01,11.3,36.27-4.28.5-3.49.01-9.49-4.86-8.28-3.13.77.92,8.43-1.64,10.67-4.72,3.25-10.67,3.71-16.15,2.53-4.93-1.07-10.77-7.41-15.11-6.19-4.02,1.13-4.98,12.58-13.91,13.62-9.64,1.12-7.97-3.51-9.98-9.53-1.65-4.93-8.4-1.55-3.63,8.2,6.72,13.74,25.57,5.6,29.02-6.73Z"/>
    <path class="st0" d="M492.34,949.95c1-.08,2.1-.44,2.82-1.13,36.07-34.34,80.63-57.29,118.26-89.67,17.68-15.21,33.05-32.67,46.82-51.49,14.97,2.3,30.2,5.03,45.18.97l1.05.76c7.64,32.41,4.66,69.77-6.24,101.16-10.03,28.88-21.58,34.84-49.16,45.65-32.51,12.74-93.92,12.69-128.18,6.01-4.9-.96-24.03-6.6-27.96-8.59-1.62-.82-3.02-1.52-2.6-3.65Z"/>
    <path class="st0" d="M165.66,215.51c-7.24,10.04-15.45,19.33-22.18,29.78-12.71,19.76-24.65,44.59-32.67,66.7-3.25,8.97-7.33,29.64-10.92,35.92-4.88,8.54-19.66,17.4-26.98,6.59-18.26-26.96,5.39-80.77,20.31-105.78,9.35-15.66,16.77-28.31,35.84-32.69,12.12-2.79,24.5-3.21,36.6-.51Z"/>
    <path d="M299.9,328.3c.63-.42,3.1-.3,3.64,1.02.95,12.53,13.55,29.66,27.71,23.14,3.86-1.78,5.72-13.14,5.59-17.09-.09-2.67-2.33-5.63-1.82-7.62,1.13-4.34,6-1.25,6.7,3.36,5.19,34.23-27.75,37.1-40.47,10.8-16.01,26.71-39.87,6.88-32.22-18.53.74-2.45,1.58-6.67,4.8-6.66,5.62.02-.01,8.38-.43,12.17-1.63,14.7,8.5,29.95,20.42,13.57,2.59-3.55,5.44-13.72,6.07-14.15Z"/>
    <path d="M154.26,372.76c-3.08,10.73-12.61,20.99-24.67,16.08-8.03-3.27-7.74-20.79-3.78-26.8,2.03-3.08,4.95-1.17,5.2.99.13,1.17-1.68,3.84-1.81,5.83-.28,4.13-1.51,13.74,2.99,15.08,9.04,2.7,14.72-5.65,17.16-13.22.98-3.02,1.78-18.17,6.58-11.66,3.07,19.54,15.3,13.8,16.62-2.83.43-5.42-1.7-13.71-1.24-17.14.57-4.19,5.21-4.43,5.82,1.05,1.25,11.27,3.02,27.53-7.48,34.89-6.43,4.51-9.47.93-15.4-2.28Z"/>
    <path d="M226.22,402.82c-3.45,12.33-22.3,20.47-29.02,6.73-4.77-9.75,1.98-13.13,3.63-8.2,2.02,6.02.35,10.66,9.98,9.53,8.93-1.04,9.9-12.49,13.91-13.62,4.35-1.22,10.18,5.13,15.11,6.19,5.48,1.18,11.19.69,15.91-2.56,2.64-2.11-1.25-9.86,1.88-10.64,4.88-1.21,5.37,4.79,4.86,8.28-2.25,15.58-27.13,12.16-36.27,4.28Z"/>
    <path d="M224.7,379.15c2.03-.03,4.87,1.25,4.94,3.63-5.88,18.24-26.63-3.32-4.94-3.63Z"/>
  </g>
  <g id="_レイヤー_2" data-name="レイヤー_2" class="st2">
    <g>
      <path class="st0" d="M593.64,100.64c-9.04,1.1-22.68,8.98-28.37,9.26-9.7.46-28.25-4.94-39.17-5.92-55.79-4.99-115.49,2.72-168.87,19.2-5.77,1.78-18.89,8.23-23.16,8.61-3.85.34-11.17-2.74-15.74-3.26-24.17-2.76-43.15-2.67-64.81,9.42-31.07,17.35-90.56,86.05-94.3,121.9-1.85,17.73-.82,36.9,15.58,47.46-34.64,62.09-53.11,129.1-67.9,198.26-16.46,76.97-25.44,141.83-28.4,220.78-3.32,88.46-7.17,177.82-2.51,266.24,1.07,20.31.68,67.17,10.77,83.28,12.26,19.58,56.16,34.7,78.15,40.34,34.49,8.85,101.37,5.43,129.63-18.69,12.17-10.39,9.8-31.96,12.49-47.37,7.89-45.17,30.14-96.16,58.49-132.05,9.89-12.51,27.31-37.65,45.05-25.57,13.89,9.46,23.27,25.08,35.52,36.55,14.55,13.63,35.53,28.66,53.8,36.59,58.02,25.17,156.81,16.03,211.3-15.82,20.81-12.16,23.02-20.47,30.84-42.45,7.27-20.44,15.56-46.95,19.84-68.1,3.79-18.72,9.68-56.07-3.25-71.28-9.65-11.35-24.25-8-36.94-9.48-6.67-.78-30.84-10.08-31.22-17.52,27.78-90.98,60.11-183.89,65.89-279.79,5.03-83.48-11.56-204.47-60.55-274.1-1.6-2.28-5.76-4.96-6.37-7.07-1.51-5.19-.61-13.53-2.75-20.45-10.17-32.84-59.12-63.08-93.04-58.96Z"/>
      <path d="M593.64,100.64c33.91-4.12,82.87,26.12,93.04,58.96,2.14,6.93,1.25,15.26,2.75,20.45.61,2.11,4.76,4.79,6.37,7.07,48.99,69.63,65.59,190.62,60.55,274.1-5.78,95.89-38.11,188.81-65.89,279.79.38,7.44,24.55,16.74,31.22,17.52,12.68,1.48,27.28-1.87,36.94,9.48,12.93,15.21,7.04,52.56,3.25,71.28-4.28,21.16-12.57,47.66-19.84,68.1-7.82,21.98-10.03,30.29-30.84,42.45-54.49,31.85-153.28,40.99-211.3,15.82-18.27-7.93-39.25-22.96-53.8-36.59-12.25-11.47-21.63-27.09-35.52-36.55-17.74-12.08-35.17,13.06-45.05,25.57-28.36,35.89-50.61,86.89-58.49,132.05-2.69,15.41-.31,36.98-12.49,47.37-28.26,24.12-95.15,27.54-129.63,18.69-21.98-5.64-65.88-20.75-78.15-40.34-10.09-16.12-9.7-62.98-10.77-83.28-4.67-88.42-.82-177.78,2.51-266.24,2.96-78.95,11.94-143.81,28.4-220.78,14.79-69.17,33.26-136.18,67.9-198.26-16.41-10.56-17.43-29.72-15.58-47.46,3.74-35.84,63.23-104.54,94.3-121.9,21.66-12.09,40.63-12.18,64.81-9.42,4.57.52,11.9,3.61,15.74,3.26,4.27-.38,17.39-6.83,23.16-8.61,53.39-16.49,113.08-24.19,168.87-19.2,10.92.98,29.47,6.38,39.17,5.92,5.69-.27,19.33-8.16,28.37-9.26ZM672.09,196.79c-4.98,26.38-6.58,56.99-30.15,74.3-15.35,11.27-42.59,13.35-54.68-3.53-12.61-17.62-19.13-46.48-19.12-67.72,0-3.78,1.28-20.19,5.59-20.18,5.45.01.81,12.33.58,16.47-1.17,20.69,5.54,49.79,17.35,67.03,10.65,15.56,34.74,12.57,48.02,2.01,12.26-9.75,17.35-23.14,20.81-37.82,10.29-43.68,13.6-71.03-29.56-95.05-31.31-17.43-49.97-5.46-77.95,10.78-7.64-2.77,2.04-9.13,6.73-9.81.33-1.59-2.25-1.94-3.34-2.12-64.39-10.76-143.52-5.49-204.61,18.32-4.78,1.86-24.38,12.48-25.91,12.65-2.17.25-3.95-1.08-2.96-3.64,1.11-2.86,4.32-2.11,4.73-4.42-15.08-3.56-34.92-6.08-50.04-1.82-30.23,8.53-86.53,75.68-94.45,105.87-3.14,11.98-5.12,31.12,11.97,31.61,1.95.06,7.87-.64,9.41-1.37,1.74-.83,17.05-28.31,20-32.83,10.27-15.71,23.42-34.66,39.22-45.06,3.59-2.36,10.27-6.83,14.41-6.35,1.08.06.82,2.3.64,3.08-.68,2.94-12.85,8.7-16.48,11.62-23.35,18.79-50.21,66.88-64.79,94-66.39,123.47-91.79,287.85-97.03,426.98-3.23,85.81-6.34,173.24-1.22,258.85,1.04,17.45.68,35.12,3.71,52.48,3.58,20.48,17.71,24.58,35.36,31.82,39.62,16.24,89.29,22.29,129.42,3.68,2.03-.94,10.57-5.54,11.69-6.63,3.25-3.19,1.28-10.48,1.92-15.19,9.37-69.73,41.34-143.28,93.9-190.7-23.21,2.89-48.93,6.67-70.46,16.27-4.04,1.8-11.26,9.21-11.21,1.03.69-1.86,2.39-2.49,3.87-3.48,19.25-12.76,84.77-24.01,107.71-21.74,24.53,2.43,41.44,31.69,58.01,47.03,46.21,42.77,93.3,47.82,154.52,42.11,19.7-1.84,83.76-18.52,94.53-34.95,4.49-6.85,9.86-26.25,12.69-34.94,8.89-27.31,18.47-59.45,19.28-88.23.58-20.69-7.91-13.75-22.51-15.46-20.69-2.41-40.52-12.7-53.27-29.17-1.66,8.46-20.89,65.75-25.18,67.06-2.16.66-4.13-.58-4.16-2.88,7.01-15.56,12.87-31.51,18.36-47.68,59.09-174.01,118.15-362.86,35.97-540.48-5.15-11.13-11.74-24.02-21.32-31.8Z"/>
      <path class="st0" d="M672.09,196.79c9.58,7.78,16.17,20.66,21.32,31.8,82.18,177.62,23.12,366.47-35.97,540.48-5.49,16.16-11.35,32.11-18.36,47.68.03,2.29,2.01,3.54,4.16,2.88,4.29-1.31,23.51-58.61,25.18-67.06,12.75,16.46,32.58,26.76,53.27,29.17,14.6,1.7,23.09-5.23,22.51,15.46-.81,28.78-10.39,60.92-19.28,88.23-2.83,8.69-8.2,28.09-12.69,34.94-10.76,16.43-74.82,33.11-94.53,34.95-61.22,5.72-108.31.66-154.52-42.11-16.58-15.34-33.49-44.61-58.01-47.03-22.94-2.27-88.46,8.98-107.71,21.74-1.48.98-3.18,1.61-3.87,3.48-.05,8.18,7.16.78,11.21-1.03,21.53-9.6,47.25-13.38,70.46-16.27-52.56,47.42-84.53,120.97-93.9,190.7-.63,4.7,1.33,12-1.92,15.19-1.11,1.09-9.65,5.69-11.69,6.63-40.13,18.6-89.8,12.56-129.42-3.68-17.65-7.24-31.79-11.34-35.36-31.82-3.03-17.35-2.67-35.03-3.71-52.48-5.12-85.61-2.01-173.04,1.22-258.85,5.24-139.13,30.64-303.51,97.03-426.98,14.58-27.12,41.44-75.21,64.79-94,3.63-2.92,15.81-8.68,16.48-11.62.18-.78.44-3.02-.64-3.08-4.14-.48-10.82,3.99-14.41,6.35-15.8,10.4-28.94,29.35-39.22,45.06-2.95,4.51-18.27,32-20,32.83-1.54.73-7.46,1.43-9.41,1.37-17.09-.49-15.11-19.63-11.97-31.61,7.92-30.19,64.22-97.34,94.45-105.87,15.12-4.27,34.96-1.74,50.04,1.82-.42,2.31-3.62,1.56-4.73,4.42-.99,2.56.79,3.89,2.96,3.64,1.54-.18,21.13-10.79,25.91-12.65,61.09-23.81,140.22-29.09,204.61-18.32,1.09.18,3.67.53,3.34,2.12-4.69.67-14.36,7.04-6.73,9.81,27.98-16.24,46.64-28.2,77.95-10.78,43.17,24.02,39.85,51.37,29.56,95.05-3.46,14.69-8.55,28.07-20.81,37.82-13.28,10.56-37.36,13.55-48.02-2.01-11.81-17.24-18.52-46.34-17.35-67.03.23-4.14,4.87-16.46-.58-16.47-4.31-.01-5.59,16.4-5.59,20.18,0,21.24,6.5,50.1,19.12,67.72,12.09,16.88,39.33,14.8,54.68,3.53,23.57-17.31,25.17-47.91,30.15-74.3ZM438.77,249.32c-.58-.61-5.85.42-7.01,1.53-4.43,4.22-6.2,21.65-4.39,27.58,4.65,15.2,23.05,7.03,32.16,1.42,2.52,12.7,11.45,21.25,24.95,19.43,17.44-2.35,18.75-30.04,9.69-30.25-5.8-.14-.48,7.19-.34,10.22.95,20.1-27.11,18.12-29.19-1.56-.3-2.85,2.65-9.02-.85-10.05-3.68-1.09-6.27,5.6-9.2,7.87-4.15,3.21-16.04,8.41-20.41,4.05-3.5-3.49-1.1-18.76,1.17-23.34.54-1.09,6.15-4.03,3.42-6.9ZM309.18,265.34c-6.99-3.65-5.74,9.28-8.2,15.35-2.6,6.42-12.13,17.87-19.79,15.77s-3.13-12.69-7.9-11.71c-3.03.62-12.46,31.84-25.51,24.27-6.73-3.9.32-17.82,4.12-22.44,2.06-2.5,8.19-3.3,3.03-7.94-7.25-1.5-27.77,31.6-6.73,37.3,14.61,3.96,22.35-17.65,25.07-17.64,7.09,6.46,12.51,4.99,20.06.4,10.57-6.42,17.67-20.95,15.86-33.35ZM333.73,298.07c-2,12.7,13.19,14.65,14.57.91,0-.04-.01-.07-.04-.1l-1.73-1.6c-.1-.1-.24-.15-.38-.15l-11.32-.02c-.55,0-1.02.41-1.1.96ZM383.8,320.16c-8.76-.61-4.53,2.76-5.09,6.46-1.82,11.92-25.28,8.66-32.7,3.86-2.66-1.72-5.33-6.76-9.03-6.41-7.8,5.18-14.92,13.9-25.78,11.96-8.4-1.5-3.97-9.02-4.46-11.51-.94-4.76-8.25-1.2-7.18,7.12,2.21,17.16,30.43,10.08,37.4-.42,14.32,12.6,51.37,16.71,46.84-11.08Z"/>
      <path d="M438.77,249.32c2.73,2.87-2.88,5.81-3.42,6.9-2.27,4.58-4.68,19.84-1.17,23.34,4.37,4.35,16.26-.84,20.41-4.05,2.93-2.26,5.52-8.95,9.2-7.87s.55,7.2.85,10.05c2.08,19.68,30.14,21.66,29.19,1.56-.14-3.03-5.46-10.35.34-10.22,9.06.21,7.75,27.9-9.69,30.25-13.5,1.82-22.43-6.73-24.95-19.43-9.11,5.61-27.51,13.78-32.16-1.42-1.81-5.93-.04-23.36,4.39-27.58,1.16-1.11,6.44-2.14,7.01-1.53Z"/>
      <path d="M309.18,265.34c1.81,12.4-5.29,26.92-15.86,33.35-7.55,4.59-12.97,6.06-20.06-.4-2.72,0-10.46,21.6-25.07,17.64-21.04-5.7-.53-38.79,6.73-37.3,5.16,4.65-.97,5.44-3.03,7.94-3.8,4.62-10.85,18.54-4.12,22.44,13.05,7.57,22.48-23.65,25.51-24.27,4.77-.98.47,9.68,7.9,11.71s17.19-9.34,19.79-15.77c2.46-6.08,1.21-19,8.2-15.35Z"/>
      <path d="M383.8,320.16c4.52,27.79-32.53,23.68-46.84,11.08-6.97,10.49-35.19,17.57-37.4.42-1.07-8.33,6.24-11.89,7.18-7.12.49,2.49-3.95,10,4.46,11.51,10.86,1.94,17.99-6.78,25.78-11.96,3.7-.35,6.37,4.69,9.03,6.41,7.42,4.79,30.88,8.06,32.7-3.86.57-3.7-3.67-7.08,5.09-6.46Z"/>
      <path d="M338.05,297.12h7.58c.48.01.93.19,1.28.52h0c.93.86,1.33,2.15,1.05,3.39-2.27,10-12.87,9.46-14.27,1.16-.45-2.66,1.65-5.07,4.35-5.07Z"/>
    </g>
  </g>
  <g id="_レイヤー_3" data-name="レイヤー_3" class="st2">
    <g>
      <path class="st0" d="M582.67,97.94c-16.38,2.36-32.69,14.48-45.59,24.14-59.82-17.89-123.94-20.83-185.63-11.44-27.69,4.21-55.51,9.98-80.55,22.88-23.38-16.69-36.49-34.76-68.03-25.11-25.83,7.9-87.25,46.52-98.17,71.48-11.91,27.25,2.12,81.21,14.55,107.66-31.24,121.95-33.75,250.32-28.79,375.78,4.6,116.42,26.99,241.97,57.29,354.23,6.53,24.18,13.76,42.14,23.46,64.88,6.24,14.63,11.47,32.09,21,45.25,10.08,13.92,24.45,5.93,38.27,4.74,24.83-2.15,49.28-2.22,74.16-5.99,9.24-1.4,27.86-3.68,34.45-9.7,13.49-12.33,3.48-22.39.55-35.47-8.57-38.3,12.8-103.64,44.17-127.88,26.04-20.12,53.65-22.79,83.07-7.63,23.89,12.31,37.19,42.71,39.49,68.6,2.02,22.77.85,54.83,6.05,76.49,2.88,12.01,11.43,17.56,23.56,17.21,4.72-.14,10.37-2.08,15.08-2.37,39.86-2.44,77.37-2.67,117.31-6.98,11.44-1.23,24.83,1.88,30.2-12.79,7.89-21.57,8.23-63.3,11.05-87.76,24.26-210.23,47.12-425.43,10.11-635.67-8.13-46.17-19.88-87.77-41.45-129.47,2.25-18.06,6.22-36.16,4.59-54.53-2.55-28.62-28.65-44.53-50.48-58.76-13.19-8.6-33.71-24.09-49.69-21.78Z"/>
      <path d="M582.67,97.94c15.98-2.31,36.5,13.19,49.69,21.78,21.84,14.23,47.94,30.13,50.48,58.76,1.63,18.37-2.34,36.46-4.59,54.53,21.57,41.7,33.33,83.3,41.45,129.47,37.01,210.25,14.16,425.44-10.11,635.67-2.82,24.46-3.16,66.2-11.05,87.76-5.37,14.68-18.76,11.56-30.2,12.79-39.94,4.31-77.45,4.54-117.31,6.98-4.71.29-10.36,2.23-15.08,2.37-12.12.35-20.67-5.2-23.56-17.21-5.2-21.66-4.03-53.72-6.05-76.49-2.3-25.89-15.6-56.29-39.49-68.6-29.43-15.16-57.03-12.49-83.07,7.63-31.38,24.24-52.75,89.58-44.17,127.88,2.93,13.08,12.94,23.14-.55,35.47-6.59,6.02-25.21,8.3-34.45,9.7-24.89,3.77-49.33,3.83-74.16,5.99-13.81,1.2-28.19,9.18-38.27-4.74-9.53-13.16-14.76-30.62-21-45.25-9.7-22.73-16.93-40.7-23.46-64.88-30.3-112.26-52.7-237.81-57.29-354.23-4.95-125.47-2.44-253.83,28.79-375.78-12.42-26.46-26.46-80.42-14.55-107.66,10.92-24.96,72.34-63.58,98.17-71.48,31.54-9.65,44.65,8.42,68.03,25.11,25.05-12.9,52.87-18.66,80.55-22.88,61.69-9.39,125.81-6.45,185.63,11.44,12.91-9.66,29.21-21.77,45.59-24.14ZM579.66,180.4c.69-1.08,4.75-2.08,5.52.58.54,1.86-.26,10.56.13,13.75,2.47,20.12,13.33,59.83,29.1,73.17,12.58,10.64,30.84,5.81,36.78-9.52,2.06-23.02,17.32-69.01,6.35-89.46-6.81-12.69-41.03-34.35-54.48-41.97-2.9-1.64-12.39-6.93-14.98-7.19-10.12-1-37.95,16.39-41.84,26.81-18.16-3.05-35.94-9.57-54.09-13.24-59.69-12.07-147.7-7.75-204.18,16.1-4.93,2.08-18.1,10.25-21.73,10.71s-7.77-7.81-10.81-10.78c-4.61-4.5-27.09-20.73-32.54-22.12-5.83-1.48-14.92,2.75-20.54,5.09-19.36,8.07-72.61,39.57-78.8,59.48-4.42,14.24.41,37.54,3.71,52.13,6.91,30.54,28.67,82.15,63.06,41.45,19.94-23.6,24.03-55.38,28.94-84.98.44-2.66-1.46-12.67,4.19-10.9,3.71,1.16.8,14.24.25,17.67-3.6,22.48-7.42,47.43-18.8,67.21-14.9,25.9-39.47,46.63-64.47,17.42-8.26,34.45-16.32,70.16-20.77,105.37-21.91,173.38-7.97,369.76,30.62,539.91,12.14,53.52,25.82,108.31,48.81,158.09,2.86,6.18,7.9,11.86,9.99,18.49,37.74-5.37,76.34-4.09,113.69-12.67-13.63-35.83-5.64-75.19,8.42-109.57,25.21-61.62,85.9-99.75,149.45-62.98,45.12,26.1,45.92,75.05,50.03,120.83.45,5.04,1.55,34.79,3.41,36.12,7.91.6,17.06-1.53,25-1.88,24.35-1.06,48.84-.55,73.21-2.29,15.27-1.09,30.47-4.1,45.78-4.75,5.95-21.35,5.77-43.61,8.25-65.57,24.08-213.3,49.71-426.83,12.6-640.46-4.46-25.7-9.84-54.51-18.69-78.95-5.68-15.7-14.73-30.19-19.49-46.19-1.45-.34-1.45,1.2-1.75,2.28-3.24,12.08-3.62,23.14-17.21,29.3-31.88,14.46-48.92-28.52-55.68-51.63-2.14-7.3-9.71-39.83-6.49-44.88Z"/>
      <path class="st0" d="M579.66,180.4c-3.22,5.05,4.35,37.58,6.49,44.88,6.76,23.12,23.8,66.1,55.68,51.63,13.58-6.16,13.96-17.22,17.21-29.3.29-1.08.29-2.62,1.75-2.28,4.76,16,13.8,30.49,19.49,46.19,8.85,24.45,14.22,53.25,18.69,78.95,37.11,213.63,11.48,427.17-12.6,640.46-2.48,21.96-2.29,44.22-8.25,65.57-15.32.65-30.52,3.66-45.78,4.75-24.37,1.74-48.87,1.23-73.21,2.29-7.95.35-17.09,2.47-25,1.88-1.86-1.33-2.96-31.08-3.41-36.12-4.11-45.78-4.91-94.73-50.03-120.83-63.55-36.77-124.24,1.36-149.45,62.98-14.06,34.38-22.05,73.74-8.42,109.57-37.35,8.58-75.95,7.3-113.69,12.67-2.1-6.63-7.14-12.31-9.99-18.49-23-49.78-36.68-104.57-48.81-158.09-38.59-170.16-52.53-366.54-30.62-539.91,4.45-35.2,12.51-70.91,20.77-105.37,25,29.21,49.57,8.48,64.47-17.42,11.38-19.78,15.2-44.74,18.8-67.21.55-3.43,3.46-16.51-.25-17.67-5.65-1.78-3.75,8.23-4.19,10.9-4.91,29.59-9,61.38-28.94,84.98-34.39,40.7-56.14-10.91-63.06-41.45-3.3-14.58-8.14-37.89-3.71-52.13,6.18-19.91,59.44-51.41,78.8-59.48,5.62-2.34,14.71-6.57,20.54-5.09,5.45,1.39,27.93,17.62,32.54,22.12,3.04,2.97,7.03,11.26,10.81,10.78s16.8-8.63,21.73-10.71c56.47-23.85,144.48-28.17,204.18-16.1,18.15,3.67,35.93,10.19,54.09,13.24,3.89-10.41,31.72-27.8,41.84-26.81,2.59.26,12.08,5.54,14.98,7.19,13.44,7.62,47.67,29.28,54.48,41.97,10.97,20.45-4.29,66.44-6.35,89.46-5.94,15.32-24.2,20.16-36.78,9.52-15.77-13.35-26.63-53.06-29.1-73.17-.39-3.18.41-11.89-.13-13.75-.78-2.66-4.84-1.66-5.52-.58ZM283.29,349.96c11.32,20.24,38.11,16.09,47.06-4.65,2.51-5.81,7.12-29.56,1.81-33.21-6.63-4.55-3.33,12.06-3.52,15.23-.79,13.31-7.52,29.93-23,30.46-6.38.22-14.14-4.44-17.7-9.57-2.12-3.05-3.28-11.21-7.5-9.86-1.6.51-4.8,14.13-7.6,17.99-16.24,22.37-53.49,13.04-34.65-18.41.91-1.52,8.06-7.79,2.69-8.91-4.46-.93-11.19,11.91-12.23,15.64-2.92,10.4-1.24,22.11,9.35,26.8,13.68,6.06,27.61,1.56,37.19-9.28,3.62-4.1,4.76-8.34,8.09-12.23ZM527.52,336.28c-3.66,3.8-2.75,8.85-10.69,13.15-24.12,13.07-35.13-12.71-23.29-31.51l-2.88-2.84c-12.85,11.03-8.85,40.52,9.37,42.9,8.91,1.17,20.72-2.11,26.62-9.17,6.21,14.08,12.11,25.77,29.92,22.94s17.82-17.79,18.28-32.28l-4.51.15c-2.85,9.69-.36,23.43-12.85,26.08-18.94,4.02-26.14-13.59-24.57-29.59-1.65-.74-4.02-1.28-5.4.16ZM415.45,383.95c-2.8-2.6-16.08-2.34-16.03,2.59,1.85,3.95,4.72,9.53,9.84,8.79,3.63-.52,9.12-8.66,6.2-11.38ZM409.78,414.05c-4.46-2.82-6.17,4.12-7.99,6.25-8.59,10.01-31.27,22.44-43.46,13.27-4.18-3.14-.43-10.55-3.6-11.52-6.26-1.92-5.01,10.55-.03,15.15,13.19,12.17,44.27-.55,52.31-15.15,10.26,11.37,32.75,21.03,46.96,12.12,8.76-5.5,5.41-19.81.69-13.26-4.06,20.26-33.51,8.61-42.96-2.41-1.03-1.21-1.6-4.24-1.92-4.44Z"/>
      <path d="M283.29,349.96c-3.33,3.89-4.47,8.13-8.09,12.23-9.59,10.84-23.52,15.34-37.19,9.28-10.59-4.69-12.27-16.41-9.35-26.8,1.05-3.73,7.77-16.57,12.23-15.64,5.37,1.12-1.78,7.39-2.69,8.91-18.84,31.45,18.41,40.78,34.65,18.41,2.8-3.86,6-17.48,7.6-17.99,4.22-1.35,5.38,6.82,7.5,9.86,3.57,5.13,11.32,9.79,17.7,9.57,15.47-.53,22.2-17.15,23-30.46.19-3.17-3.11-19.78,3.52-15.23,5.31,3.65.7,27.4-1.81,33.21-8.95,20.74-35.74,24.89-47.06,4.65Z"/>
      <path d="M527.52,336.28c1.38-1.44,3.76-.9,5.4-.16-1.57,16,5.63,33.61,24.57,29.59,12.49-2.65,10-16.39,12.85-26.08l4.51-.15c-.45,14.49-1.07,29.55-18.28,32.28s-23.72-8.87-29.92-22.94c-5.89,7.06-17.71,10.34-26.62,9.17-17.75-2.32-22-30.37-10.33-42.01.51-.51,1.34-.52,1.85-.02h0c1.15,1.14,1.38,2.88.64,4.32-9.56,18.51,1.51,41.69,24.64,29.16,7.94-4.3,7.03-9.35,10.69-13.15Z"/>
      <path d="M409.78,414.05c.31.2.88,3.23,1.92,4.44,9.45,11.02,38.9,22.67,42.96,2.41,4.73-6.55,8.08,7.77-.69,13.26-14.21,8.91-36.7-.75-46.96-12.12-8.03,14.61-39.12,27.33-52.31,15.15-4.98-4.6-6.23-17.07.03-15.15,3.17.97-.58,8.38,3.6,11.52,12.19,9.17,34.87-3.26,43.46-13.27,1.82-2.13,3.53-9.07,7.99-6.25Z"/>
      <path d="M415.45,383.95c2.93,2.72-2.57,10.86-6.2,11.38-5.11.73-7.99-4.84-9.84-8.79-.04-4.93,13.23-5.19,16.03-2.59Z"/>
    </g>
  </g>
  <g id="_レイヤー_4" data-name="レイヤー_4" class="st2">
    <g>
      <path class="st0" d="M262.61,181.94c-1.05-1.81.22-14.42-.69-18.81-3.73-18-26.39-31.35-43.79-32.07-14.74-31.05-64.33-32.32-90.92-17.19-3.34,1.9-10.63,8.37-13.1,9.02-5.45,1.42-14.47,1.01-21.54,2.69C37.34,138.73.75,195.02,23.47,249.86c1.53,3.68,6.33,10.53,6.91,13.11,2.74,12.12-2.64,17.6,8.11,29.82,2.82,3.2,8.26,5.65,9.89,8.02,3.11,4.51,3.49,10.62,8.52,15.71,6.71,6.79,26.41,15.42,35.8,16.87,5.87.91,12.07-.67,16.41-.1,1.32.17,5.83,3.97,8.2,4.98,15.78,6.76,31.29,6.61,47.36.6,4.19-1.57,12-7.46,14.22-7.99,2.64-.63,13.73,1.36,18.68.86,10.01-1.02,22.05-6.99,28.47-14.73,2.66-3.21,7.7-14.4,8.98-15.25,2.57-1.7,13.31-3.75,17.55-5.63,39.49-17.47,43.63-77.81,17.21-108.22-1.54-1.78-6.94-5.58-7.17-5.99ZM208.65,922.82c1.09,1.28-7.3,13.65-8.61,16.14-9.74,18.4-28.74,59.1-19.35,78.71,8.82,18.43,55.89,36.68,75.11,43.95,18.15,6.86,38.42,13.71,57.16,18.7,28.28,7.53,44.83,14.02,63.01-13.89,17.8-27.32,31.59-63.4,55.48-86.75,11.49-11.23,22.44-1.01,35.72,2.28,48.04,11.9,119.2-.3,163.29-22.41,66.59-33.4,119.29-144.02,144.75-211.35,32.74-86.6,46.48-184.23,34.88-276.67-.97-7.75-7.43-32.17-6.92-36.9.43-3.97,5.95-12.12,6.79-18.31,4.07-29.92-18.99-56.61-38.17-77.18-13.99-15-19.37-15.54-40.09-14.78-7.48.27-19.26,3.13-26.23,2.08-10.87-1.63-33.73-11.93-46.72-15.43-43.85-11.81-87.94-17.1-133.45-12.98-12.77-6.13-31.35-20.83-45.32-22.13-24.57-2.28-83.14,22.8-99.09,42.17-17.92,21.75-30.33,70.25-18.97,96.95-28.54,44.39-47.28,95.9-62.14,146.44-15.12,51.4-26.4,103.85-34.33,156.89-22.37,3.02-67.29,8.3-81.9,27.14-22.35,28.83-13.12,136.16,7.36,166.11,3.92,5.74,10.58,10.75,17.74,11.25ZM263.45,413.94c3.69-9.06,12.44-12.58,13.69-23.7,6.51-57.95-73.15-44.72-76.96-3.21-1.49,16.28,1.58,32.07,17.97,39.01,12.83,5.44,26.17,5.02,37.9-2.62-13.97,48.17,63.29,59.24,56.79,4.86-3.13-26.17-31.99-28.96-49.39-14.34Z"/>
      <path d="M208.65,922.82c-7.16-.49-13.81-5.51-17.74-11.25-20.49-29.94-29.72-137.28-7.36-166.11,14.62-18.85,59.54-24.12,81.9-27.14,7.93-53.04,19.22-105.49,34.33-156.89,14.86-50.54,33.6-102.06,62.14-146.44-11.36-26.69,1.05-75.2,18.97-96.95,15.96-19.37,74.52-44.45,99.09-42.17,13.96,1.29,32.55,16,45.32,22.13,45.5-4.12,89.59,1.17,133.45,12.98,12.99,3.5,35.85,13.8,46.72,15.43,6.98,1.05,18.75-1.81,26.23-2.08,20.73-.76,26.11-.22,40.09,14.78,19.18,20.57,42.23,47.26,38.17,77.18-.84,6.19-6.36,14.34-6.79,18.31-.51,4.73,5.94,29.14,6.92,36.9,11.6,92.44-2.14,190.07-34.88,276.67-25.46,67.33-78.17,177.95-144.75,211.35-44.08,22.11-115.25,34.31-163.29,22.41-13.28-3.29-24.24-13.5-35.72-2.28-23.89,23.35-37.68,59.43-55.48,86.75-18.19,27.91-34.73,21.43-63.01,13.89-18.73-4.99-39-11.84-57.16-18.7-19.22-7.26-66.29-25.52-75.11-43.95-9.39-19.62,9.61-60.31,19.35-78.71,1.32-2.49,9.7-14.86,8.61-16.14ZM512.08,314.89c-5.61-5.99-31.01-20.46-38.15-19.8-16.57,1.52-63.38,20.63-75.1,32.46-13.11,13.24-23.23,49.73-21.64,67.98,1.32,15.22,12.27,22.99,26.75,17.19,20.72-8.29,41.64-39.81,53.15-58.52,2.22-3.61,4.7-13.39,8.46-5.25-10.68,21-44.12,71.29-69.89,71.3-3.03,0-10.67-3.59-12.11-2.7-32.63,48.62-52.39,105.4-68.19,161.56-14.08,50.04-24.67,100.9-31.92,152.45,34.29.6,67.92-3.47,101.82,4.62,33.1,7.89,95.85,39.84,114.63,68.69,2.14,3.29,1.73,6.68-2.56,4.68-1.8-.84-9.17-11.33-11.56-13.73-22.92-23.18-74.59-49.3-106.43-55.82-38.97-7.98-123.21-5.35-160.98,7.61-17.62,6.04-21.39,8.97-25.2,27.48-6.51,31.59-2.4,92.15,11.81,121.37,3.09,6.36,5.04,8.03,12.36,7.11,11.88-1.49,28.24-9.03,40.4-12.29,50.28-13.49,95.58-12.19,140.07,16.74,33.53,21.81,46.13,54.6,91.64,57.96,61.81,4.57,130.86-10.13,173.33-57.38,94.22-104.84,144.91-291.06,128.49-429.87-1.45-12.23-4.6-24.2-6.31-36.36-2.47-.52-1.69.33-2.36,1.36-3.26,5.06-5.63,10.85-9.41,15.85-13.41,17.78-36.38,30.86-54.09,10.2-16.27-18.98-20.32-56.74-16.31-80.61.63-3.74,4.62-3.73,5.28.02.56,3.21-1.01,6.27-1.11,9.41-.69,21.08,2.15,62.01,22.85,74.16,23.9,14.03,46.82-26.11,54.29-43.38,5.16-11.94,9.23-19.45,4.83-32.59s-21.31-32.56-30.81-42.94c-1.55-1.69-8.31-8.84-9.71-9.25-6.56-.14-13.29-.58-19.85-.26-3.31.16-9.52.62-12.59,1.11-3.26.51-8.91,3.25-10.46,3.17-1.04-.05-15.75-7.27-19.04-8.47-51.34-18.71-120.34-30.81-174.41-20.55-4.18.79-17.03,5.16-19.44,4.81-.94-.13-2.48-.84-2.66-1.65-.9-4.13,18.47-7.45,22.12-7.9ZM443.6,954.41c-13.05-10.77-24.8-23.6-37.92-34.24-38.81-31.49-83.66-37.65-131.9-27.58-18.4,3.84-20.69,4.7-32.44,19.19-16.69,20.6-41.44,64.61-44.05,90.88-.83,8.36,10.27,14.7,16.71,18.58,27.62,16.63,72.06,31.27,103.41,39.87,7.25,1.99,23.94,7.34,30.61,5.82,4.17-.95,9.57-8.74,11.95-12.28,17.91-26.75,29.37-56.98,51.47-82.33,8.28-9.49,18.38-19.88,32.15-17.91Z"/>
      <path d="M262.61,181.94c.23.4,5.63,4.21,7.17,5.99,26.42,30.42,22.28,90.75-17.21,108.22-4.24,1.88-14.98,3.93-17.55,5.63-1.28.85-6.32,12.04-8.98,15.25-6.42,7.74-18.46,13.71-28.47,14.73-4.95.5-16.03-1.49-18.68-.86-2.22.53-10.03,6.42-14.22,7.99-16.07,6.01-31.58,6.16-47.36-.6-2.36-1.01-6.87-4.81-8.2-4.98-4.34-.57-10.54,1.01-16.41.1-9.39-1.46-29.09-10.08-35.8-16.87-5.03-5.09-5.41-11.2-8.52-15.71-1.63-2.37-7.07-4.82-9.89-8.02-10.76-12.22-5.37-17.7-8.11-29.82-.58-2.58-5.38-9.43-6.91-13.11-22.72-54.85,13.87-111.14,69.09-124.27,7.07-1.68,16.09-1.27,21.54-2.69,2.48-.65,9.77-7.12,13.1-9.02,26.6-15.13,76.18-13.87,90.92,17.19,17.4.72,40.06,14.07,43.79,32.07.91,4.39-.36,17,.69,18.81ZM237.1,192.69c-1.62-7.18,4.7-9.84,5.33-16.26.99-10.14-2.35-15.83-10.95-20.79-9.57-5.52-15.47-4.6-25.99-3.46-5.85-9.74-3.97-16.97-15.41-22.58-19.23-9.42-42.12-6.29-59.3,5.76-2.11,1.48-9.17,8.4-10.34,8.71-1.79.48-11.22-1.18-15.44-.78-23.74,2.27-52.71,22.35-61.95,44.46-7.4,17.69-10.78,46.11,2.8,61.85,2.87,3.33,9.6,4.64,9.99,5.88,1.12,3.55-3.22,4.94-4.2,6.44-4.27,6.6-1.33,18.51,6.66,20.57,2.34.6,5.76-.95,6.96-.15.95.63,2.14,14.53,4.47,18.19,3.42,5.37,24.77,14.32,30.97,14.18,4.63-.1,8.8-5.21,13.43-3.86,1.67.49,7.31,6.98,10.36,8.66,13.11,7.22,40.87,5.24,44.81-12.07,5.88-.17,11.04,3.66,16.7,4.29,21.51,2.39,27.9-9.18,34.49-27.16,10.74-2.7,22.55-4.22,31.72-10.95,22.36-16.4,19.26-78.77-15.1-80.96Z"/>
      <path d="M263.45,413.94c17.4-14.62,46.26-11.83,49.39,14.34,6.51,54.39-70.75,43.32-56.79-4.86-11.74,7.64-25.07,8.05-37.9,2.62-16.39-6.94-19.46-22.73-17.97-39.01,3.8-41.51,83.47-54.75,76.96,3.21-1.25,11.12-10,14.65-13.69,23.7ZM242.06,408.36c2.88-2.31,5.11-8.33,7.22-11.21,3.28-4.49,7.98-5.81,8.8-12.28,2.73-21.5-30.52-15.04-36.98-.1-2.84,6.57-3.19,17.94,3.39,22.29,3.76,2.48,14.02,4.15,17.57,1.3ZM285.32,424.67c-19.5,2.52-9.63,24.8,3.39,19.28,8.25-3.5,6.06-20.5-3.39-19.28Z"/>
      <path class="st0" d="M512.08,314.89c-3.65.44-23.02,3.77-22.12,7.9.18.81,1.71,1.51,2.66,1.65,2.41.35,15.27-4.02,19.44-4.81,54.07-10.26,123.07,1.83,174.41,20.55,3.28,1.2,18,8.42,19.04,8.47,1.54.07,7.2-2.66,10.46-3.17,3.07-.48,9.28-.95,12.59-1.11,6.56-.32,13.29.12,19.85.26,1.4.42,8.16,7.56,9.71,9.25,9.5,10.37,26.5,30.05,30.81,42.94s.33,20.65-4.83,32.59c-7.46,17.27-30.39,57.41-54.29,43.38-20.71-12.15-23.54-53.09-22.85-74.16.1-3.14,1.68-6.2,1.11-9.41-.66-3.75-4.65-3.77-5.28-.02-4.01,23.87.04,61.63,16.31,80.61,17.71,20.66,40.68,7.58,54.09-10.2,3.77-5,6.15-10.79,9.41-15.85.67-1.03-.11-1.88,2.36-1.36,1.72,12.17,4.87,24.13,6.31,36.36,16.41,138.81-34.27,325.03-128.49,429.87-42.46,47.25-111.51,61.95-173.33,57.38-45.51-3.36-58.11-36.15-91.64-57.96-44.49-28.93-89.79-30.23-140.07-16.74-12.15,3.26-28.51,10.8-40.4,12.29-7.32.92-9.27-.75-12.36-7.11-14.21-29.23-18.32-89.78-11.81-121.37,3.81-18.51,7.58-21.44,25.2-27.48,37.77-12.96,122.01-15.59,160.98-7.61,31.84,6.52,83.51,32.64,106.43,55.82,2.38,2.41,9.76,12.89,11.56,13.73,4.29,2.01,4.71-1.38,2.56-4.68-18.78-28.86-81.53-60.8-114.63-68.69-33.91-8.09-67.53-4.02-101.82-4.62,7.25-51.55,17.84-102.41,31.92-152.45,15.8-56.16,35.56-112.94,68.19-161.56,1.44-.9,9.08,2.7,12.11,2.7,25.77-.02,59.21-50.3,69.89-71.3-3.77-8.14-6.24,1.64-8.46,5.25-11.52,18.72-32.43,50.23-53.15,58.52-14.48,5.8-25.42-1.97-26.75-17.19-1.59-18.26,8.53-54.74,21.64-67.98,11.72-11.83,58.53-30.94,75.1-32.46,7.14-.66,32.55,13.81,38.15,19.8ZM502.58,397.09c-.61-.4-3.14-.13-3.7,1.02.03,12.14-9.99,30.89-24.71,24.76-5.87-2.44-5.97-22.6-11.1-12.1-2.72,5.57-2.09,9.38-6.86,15.26-13.54,16.71-29.82,4.77-21.64-13.21.93-2.04,5.5-5.97,3.73-8.33-3.33-4.45-9.69,7.9-10.26,11.29-5.25,30.92,28.49,29.46,36.64,5.54,8.93,12.09,26.89,8.73,33.91-3.48,1.83-3.19,7.43-18.53,3.99-20.75ZM615.33,428.68c.04-1.48.39-2.72-1.02-3.7-6.36-4.42-14.99,11.54-15.74,16.97-2.94,21.2,16.94,17.69,30.45,12.03,1.07,27.17,27.96,38.69,36.43,7.44l-2.22-3.21c-4.69-1.08-4.31,18.43-16.73,16.82-6.32-.82-11.4-11.83-12.11-17.45-.45-3.5,1.53-11.35-1.15-12.62-3.38-.55-5.92,3.58-8.74,5.02-4.73,2.42-16.28,5.21-20.19.8-4.1-4.63,3.03-22.85,11.02-22.1ZM532.58,440.78c-.72.07-1.73.41-2.49.93s-.94,1.55-.49,2.34l3.2,5.61c13.1.04,12.6-10.04-.22-8.88ZM499.58,463.33c-1.85-2.98,4.26-6.06.31-8.24-6.45-1.9-9.43,10.48,1.41,14.42,9.45,3.44,18.59.67,27.13-3.64,6.06,6.8,22.78,18.44,31.64,12.39,2.8-1.91,4.82-9.15.98-8.51-2.91.26-2.91,4.46-5.46,5.16-7.37,2.04-20.97-9.86-25.47-15.19-9.96,4.55-19.77,9.12-30.54,3.61Z"/>
      <path class="st0" d="M443.6,954.41c-13.77-1.97-23.87,8.41-32.15,17.91-22.11,25.35-33.56,55.58-51.47,82.33-2.37,3.54-7.78,11.33-11.95,12.28-6.67,1.52-23.36-3.83-30.61-5.82-31.35-8.6-75.79-23.25-103.41-39.87-6.44-3.88-17.55-10.22-16.71-18.58,2.62-26.27,27.36-70.28,44.05-90.88,11.74-14.49,14.03-15.35,32.44-19.19,48.24-10.07,93.09-3.91,131.9,27.58,13.12,10.64,24.87,23.47,37.92,34.24ZM243.2,993.71c-12.1.44-22.78.86-33.01,8.08-1.59,9.1,10.57-.94,16.1-1.81,48.69-7.7,80.59,8.23,112.49,42.93,2.89,3.15,7.4,13.91,12.11,8.95.74-3.69-20.35-25.05-24.22-28.44-25.98-22.78-48.53-30.98-83.46-29.7Z"/>
      <path class="st0" d="M237.1,192.69c34.36,2.19,37.46,64.55,15.1,80.96-9.18,6.73-20.98,8.25-31.72,10.95-6.59,17.98-12.97,29.55-34.49,27.16-5.66-.63-10.81-4.46-16.7-4.29-3.94,17.31-31.7,19.28-44.81,12.07-3.05-1.68-8.69-8.16-10.36-8.66-4.63-1.36-8.81,3.76-13.43,3.86-6.21.13-27.55-8.81-30.97-14.18-2.33-3.66-3.52-17.56-4.47-18.19-1.21-.8-4.62.75-6.96.15-7.99-2.06-10.93-13.97-6.66-20.57.98-1.51,5.32-2.89,4.2-6.44-.39-1.23-7.12-2.55-9.99-5.88-13.57-15.75-10.19-44.17-2.8-61.85,9.24-22.11,38.22-42.19,61.95-44.46,4.22-.4,13.65,1.25,15.44.78,1.17-.31,8.23-7.23,10.34-8.71,17.18-12.05,40.07-15.18,59.3-5.76,11.44,5.61,9.56,12.84,15.41,22.58,10.52-1.14,16.41-2.06,25.99,3.46,8.61,4.96,11.94,10.65,10.95,20.79-.63,6.42-6.95,9.07-5.33,16.26Z"/>
      <path class="st0" d="M242.06,408.36c-3.55,2.84-13.82,1.18-17.57-1.3-6.58-4.35-6.24-15.72-3.39-22.29,6.47-14.95,39.71-21.41,36.98.1-.82,6.47-5.52,7.79-8.8,12.28-2.1,2.87-4.33,8.9-7.22,11.21Z"/>
      <path class="st0" d="M285.32,424.67c9.44-1.22,11.64,15.78,3.39,19.28-13.01,5.52-22.89-16.76-3.39-19.28Z"/>
      <path d="M502.58,397.09c3.44,2.22-2.16,17.56-3.99,20.75-7.02,12.21-24.98,15.57-33.91,3.48-8.15,23.92-41.89,25.37-36.64-5.54.57-3.38,6.93-15.73,10.26-11.29,1.77,2.37-2.8,6.29-3.73,8.33-8.18,17.98,8.1,29.92,21.64,13.21,4.77-5.88,4.14-9.69,6.86-15.26,5.12-10.5,5.23,9.66,11.1,12.1,14.72,6.13,24.74-12.62,24.71-24.76.56-1.15,3.08-1.42,3.7-1.02Z"/>
      <path d="M615.33,428.68c-7.99-.76-15.12,17.47-11.02,22.1s15.46,1.62,20.19-.8c2.81-1.44,5.36-5.57,8.74-5.02,2.69,1.27.71,9.12,1.15,12.62.72,5.62,5.8,16.63,12.11,17.45,12.42,1.61,12.04-17.9,16.73-16.82l2.22,3.21c-8.47,31.26-35.36,19.73-36.43-7.44-13.51,5.65-33.39,9.16-30.45-12.03.75-5.43,9.38-21.4,15.74-16.97,1.41.98,1.06,2.22,1.02,3.7Z"/>
      <path d="M499.58,463.33c9.88,5.06,18.95,1.63,28.07-2.49,1.44-.65,3.12-.33,4.21.8,5.61,5.8,17.15,15.09,23.72,13.27,2.55-.71,2.55-4.91,5.46-5.16,3.84-.65,1.82,6.6-.98,8.51-8.87,6.05-25.58-5.58-31.64-12.39-8.54,4.3-17.68,7.07-27.13,3.64-10.84-3.94-7.86-16.32-1.41-14.42,3.95,2.18-2.16,5.26-.31,8.24Z"/>
      <path d="M532.58,440.78c12.24-1.11,13.25,8.04,1.9,8.83-1.01.07-1.97-.46-2.47-1.33l-2.56-4.5c-.33-.58-.23-1.33.27-1.78.78-.68,2.01-1.14,2.86-1.22Z"/>
      <path d="M243.2,993.71c34.93-1.28,57.48,6.93,83.46,29.7,3.87,3.39,24.96,24.75,24.22,28.44-4.71,4.96-9.21-5.8-12.11-8.95-31.9-34.7-63.8-50.63-112.49-42.93-5.53.87-17.69,10.91-16.1,1.81,10.23-7.22,20.91-7.63,33.01-8.08Z"/>
    </g>
  </g>
  <g id="_レイヤー_5" data-name="レイヤー_5">
    <g>
      <path class="st0" d="M303.21,725.61c8.52,50.65,20.08,101.89,34.9,151.1,10.7,35.56,26.86,87.99,45.64,119.36,6.75,11.28,11.52,11.62,23.9,14.18,37.26,7.7,125.6,6.34,150.79-26.97,2.16-2.86,3.85-6.11,5.23-9.41,3.64-25.25-4.56-73.9,6.67-95.85,4.08-7.98,8.82-11.42,12.79-1.27,10.11,25.83-4.79,61.44,26.95,73.61,29.03,11.12,81.34,5.06,109.39-8.14,12.3-5.79,14.02-12.23,16.94-25.05,9.19-40.33,3.72-83.92,6.16-124.67,2.7-45.07,14.88-95.08,20.35-140.74,4.57-38.09,7.01-77.66,7.02-116,.01-45.05-9.24-89.54-20.55-132.81,2.53-4.42,6.41-6.83,9.2-11.32,7.67-12.33,11.25-40.85,8.11-54.81-4.48-19.9-34.88-55.96-50.48-69.6-14.26-12.47-19.16-13.48-38.57-12.18-6.98.47-20.36,4.79-25.43,4.42-2.24-.16-16.38-7.8-20.45-9.34-71.19-26.93-166.05-13.57-226.94,31.84-2.26,1.69-10.36,9.62-11.51,9.96-3.72,1.13-12.92-1.31-18.34-.76-11.16,1.12-40.16,24.14-49.78,32.23-20.52,17.26-24.35,36.12-18.4,62.29.79,3.46,5.01,13.3,4.95,15.13-.08,2.52-3.54,11.28-4.33,15.12-3.39,16.56-6.63,33.24-9.1,49.97-26.91-12.95-59.07-16.76-84.3,1.85-21.97-20.16-42.97-45.08-72.37-54.59-48.46-15.66-109.97,3.6-118.52,59.19-9.09,59.1,45.18,127.42,106.3,127.3-6.31,21.87-3.25,42.87,11.33,60.42,1.53,1.84,5.83,4.84,6.03,5.18.82,1.42,0,9.1.32,11.9,1.35,11.84,10.22,23.39,18.44,31.4.76.74,2.49,1.23,2.72,1.62.85,1.45-.09,6.67.23,9.06,3.13,23.81,24.19,40.27,47.45,42.36,12.5,1.12,32.52-6.05,43.99-11.42,14.61-6.84,29.56-16.1,43.26-24.58Z"/>
      <path d="M303.21,725.61c-13.71,8.48-28.65,17.74-43.26,24.58-11.47,5.37-31.49,12.55-43.99,11.42-23.26-2.09-44.32-18.55-47.45-42.36-.31-2.39.62-7.61-.23-9.06-.23-.39-1.97-.88-2.72-1.62-8.22-8-17.09-19.56-18.44-31.4-.32-2.8.51-10.48-.32-11.9-.2-.34-4.5-3.34-6.03-5.18-14.59-17.55-17.65-38.55-11.33-60.42-61.12.12-115.39-68.2-106.3-127.3,8.55-55.6,70.06-74.86,118.52-59.19,29.41,9.5,50.41,34.42,72.37,54.59,25.23-18.61,57.4-14.8,84.3-1.85,2.47-16.73,5.71-33.41,9.1-49.97.79-3.84,4.25-12.6,4.33-15.12.06-1.83-4.17-11.67-4.95-15.13-5.95-26.17-2.11-45.03,18.4-62.29,9.62-8.09,38.61-31.11,49.78-32.23,5.42-.54,14.62,1.89,18.34.76,1.15-.35,9.25-8.28,11.51-9.96,60.88-45.41,155.74-58.76,226.94-31.84,4.07,1.54,18.21,9.18,20.45,9.34,5.07.37,18.45-3.96,25.43-4.42,19.41-1.3,24.31-.29,38.57,12.18,15.61,13.64,46.01,49.7,50.48,69.6,3.14,13.96-.44,42.48-8.11,54.81-2.79,4.49-6.67,6.91-9.2,11.32,11.31,43.27,20.57,87.76,20.55,132.81-.01,38.33-2.45,77.91-7.02,116-5.48,45.66-17.65,95.66-20.35,140.74-2.44,40.75,3.03,84.33-6.16,124.67-2.92,12.81-4.63,19.26-16.94,25.05-28.05,13.2-80.36,19.26-109.39,8.14-31.74-12.16-16.84-47.77-26.95-73.61-3.97-10.15-8.71-6.71-12.79,1.27-11.23,21.95-3.02,70.6-6.67,95.85-1.38,3.3-3.07,6.55-5.23,9.41-25.19,33.31-113.53,34.67-150.79,26.97-12.39-2.56-17.15-2.9-23.9-14.18-18.79-31.37-34.94-83.8-45.64-119.36-14.81-49.21-26.37-100.45-34.9-151.1ZM655.67,277.5c-.5.65,11.46,9.11,12.7,10.23,2.72,2.43,11.09,10.16,12.73,12.66.61.94,1.26,1.73.93,2.96l-2.45,1.52c-1.99,0-12.97-12.37-15.64-14.65-63.24-54.02-188.74-42.26-250.86,8.79-5.07,4.16-9.48,7.8-12.87,13.54-7.25-1.04-18.66-4.56-25.67-2.28-4.89,1.59-30.15,21.3-35.66,25.85-16.78,13.81-19.56,26.33-13.7,47.82,4.08,14.97,26.21,39.49,42.41,28.73,10.85-7.21,19.22-40.83,20.56-53.64.33-3.14-1.85-15.79,3.42-14.14,2.36.74,1.54,11.45,1.35,14.02-1.04,13.76-10.31,48.36-21.33,56.77-9.58,7.32-19.49,4.39-29.01-1.3-4.26-2.55-7.16-6.67-10.54-8.99-.82-.56-.96-1.36-2.45-.96-7.65,28.61-12.54,57.99-16.61,87.36,3.38,5,7.94,9,11.56,13.85,2.75,3.69,10.66,18.35,12.36,19.86,1.59,1.42,4.7.98,6.9,1.89,5.09,2.1,8.92,8.05,11.7,12.71,14.3,24,11.11,53.22,5.48,79.39,3.48,5.23,9.44,8.53,13.55,12.88,7.34,7.76,30.64,33.78,32.13,43.04.48,2.99.75,8.88-3.33,9.17-3.22.22-9.27-9.09-11.72-11.68-2.99-3.15-34.46-33.61-37.6-30.25-5.91,21.27-14.39,50.89-36.13,60.56,13.52,79.62,31.66,161.08,60.78,236.48,4.96,12.84,11.28,27.9,17.46,40.14,1.9,3.76,3.61,9.29,7.66,10.89,4.94,1.96,20,3.78,25.89,4.37,24.36,2.43,50.88.47,74.91-4.16,10.21-1.97,38.83-11.18,40.73-22.73,2.28-32.14-2.13-66.7,7.98-97.46,16.16-28.8,50.74-36.42,81.37-38.73l2.46,1.52c1.52,4.76-12.51,3.97-15.98,4.51-13.56,2.1-29.79,5.09-40.64,13.53,22.48,4.69,24.65,36.32,26.35,55.18,1.18,13.07-3.87,21.47,11.94,27.11,21.36,7.63,56.18,3.6,77.89-2.72,3.98-1.16,12.38-3.85,15.68-5.8,4.96-2.91,6.44-13.41,7.44-18.92,7.3-39.89,2.09-81.46,5.2-121.72,3.13-40.52,13.24-84.21,18.4-125.12,7.93-62.87,12.52-129.25,1.81-191.91-1.97-11.53-12.98-67.37-19.19-73.3-1.28-1.22-4.28-1.5-6.25-2.8-12.31-8.16-21.4-38.29-24.57-52.55-1.93-8.65-3.27-17.48-3.4-26.38l3.3.12c2.22.74,2.17,11.84,2.69,14.89,2.4,14.2,12.39,53.56,25.55,60.37,5.66,2.93,12.11,2.21,16.78-2.16,7.31-6.83,10.39-32.77,9.29-42.46-1.37-11.97-22.25-38-30.74-47.36-4.39-4.83-20.64-21.58-25.86-22.96-2.56-.68-13.6.29-16.98.65-6.76.72-13.5,2.41-20.14,3.79ZM271.97,573.31c-19.9,12.24-39.99,1.18-50.92-16.92-8.44-13.97-10.44-30.96-9.58-47.01.44-8.24,3.95-8.13-1.18-16.42-10.14-16.38-46.91-49.19-64.23-57.81-30.38-15.12-80.08-11.16-98.16,20.99-26.48,47.1,22.11,118.4,72.51,124.73,18.48,2.32,29.15-2.73,45.76-4.51,5.35-.57,10.4.51,15.8-.79,4.64-1.12,17.55-8.53,21.63-11.57,1.47-1.1,2.05-3.32,2.97-3.87,5.32-3.19,4.77,3.56,1.46,6.34l-20.99,12.68c26.25-.43,89.16-8.8,84.81,33.57-1.07,10.44-6.56,16.94-13.54,24.03,17.72,4.95,16.73,30.23,5.86,41.98,20.81-1.39,23.02,17.56,17.35,33.47-1.02,2.86-3.09,4.74-3.67,7.54,15.12-7.83,27.88-20.3,37.31-34.44,6.56-9.84,9.79-21.66,15.41-30.74,19.51-31.49,17.16-101.21-1.18-133.31-17.18-30.07-66.89-64.88-100.31-41.13-27.63,19.63-10.13,105.32,33.94,92.52,18.66-5.42,26.48-32.24,24.32-49.38-.62-4.95-4.42-12.85-4.61-16.95-.08-1.79.32-3.26,2.41-3.31,2.57.56,6.91,17.89,7.23,21.09.97,9.74-2.53,27.59-7.68,36.05-4.74,7.79-9.13,7.59-7.75,18.45,2.02,15.97,15.38,40.23,24.51,53.59,1.67,2.44,11.52,13.32,9.58,15.31-2.63.4-3.58-.23-5.41-1.9-4.41-4.05-13.36-17.84-16.57-23.46-8.17-14.3-15.13-32.53-17.08-48.83ZM310.06,700.22c20.13-2.16,30.3-29.59,36.14-46.35,11.54-33.12,24.16-82.54,3.53-113.88-2.22-3.37-5.96-9.82-10.37-8.18,10.84,25.7,11.7,56.37,7.54,83.7-1.65,10.83-5.45,29.88-10.63,39.16-5.46,9.78-9.09,20.78-15.27,30.62-3.25,5.17-7.81,9.65-10.93,14.93ZM260.91,592.19c-11.1-11.14-58.89-9.65-74.35-8.13-19.99,1.97-39.3,6.13-41.49,29.78-.92,10-.01,20.14,5.42,28.72,12.26,19.37,26.67,9.8,44.32,6.38,18.39-3.57,55.95-7.64,67.39-23.4,6.65-9.16,6.95-25.07-1.3-33.35ZM249.27,640.91c-9.22,1.6-21.81,6.8-31.93,9.07-7.13,1.6-14.54,2.17-21.69,3.69-4.04.86-23.19,4.82-25.15,6.09-5.03,3.26-5.55,12.56-4.27,17.83,4.39,17.96,20.98,23.93,37.93,22.67,14.9-1.1,47.38-14.34,57.05-25.93,10.31-12.35,7.88-36.87-11.95-33.42ZM266.59,683.17c-7.43.16-18.81,7.84-25.87,10.7-16.12,6.54-32.91,13.63-50.75,10.71-8.36,12.09.39,27.4,12.17,33.75,14.99,8.09,27.56,4.24,42.48-1.5,15.89-6.11,33.66-17.43,35.05-36.24.65-8.83-3.04-17.63-13.09-17.42Z"/>
      <path class="st0" d="M655.67,277.5c6.63-1.38,13.38-3.07,20.14-3.79,3.38-.36,14.42-1.33,16.98-.65,5.22,1.39,21.48,18.13,25.86,22.96,8.5,9.36,29.38,35.4,30.74,47.36,1.11,9.69-1.97,35.63-9.29,42.46-4.68,4.37-11.12,5.09-16.78,2.16-13.16-6.81-23.14-46.17-25.55-60.37-.51-3.04-.47-14.15-2.69-14.89l-3.3-.12c.13,8.9,1.48,17.73,3.4,26.38,3.17,14.26,12.26,44.39,24.57,52.55,1.97,1.3,4.97,1.58,6.25,2.8,6.21,5.93,17.21,61.77,19.19,73.3,10.72,62.66,6.13,129.04-1.81,191.91-5.16,40.91-15.27,84.6-18.4,125.12-3.11,40.26,2.1,81.83-5.2,121.72-1.01,5.5-2.48,16.01-7.44,18.92-3.31,1.94-11.71,4.64-15.68,5.8-21.71,6.32-56.52,10.35-77.89,2.72-15.81-5.64-10.76-14.04-11.94-27.11-1.7-18.86-3.87-50.49-26.35-55.18,10.85-8.45,27.08-11.43,40.64-13.53,3.47-.54,17.5.26,15.98-4.51l-2.46-1.52c-30.63,2.32-65.21,9.94-81.37,38.73-10.11,30.76-5.7,65.32-7.98,97.46-1.91,11.55-30.53,20.76-40.73,22.73-24.03,4.64-50.54,6.6-74.91,4.16-5.89-.59-20.95-2.42-25.89-4.37-4.05-1.6-5.75-7.13-7.66-10.89-6.19-12.23-12.51-27.3-17.46-40.14-29.11-75.39-47.26-156.86-60.78-236.48,21.74-9.68,30.22-39.3,36.13-60.56,3.13-3.36,34.61,27.1,37.6,30.25,2.45,2.58,8.5,11.9,11.72,11.68,4.08-.29,3.81-6.18,3.33-9.17-1.49-9.26-24.78-35.28-32.13-43.04-4.12-4.35-10.08-7.65-13.55-12.88,5.64-26.17,8.82-55.39-5.48-79.39-2.78-4.67-6.61-10.61-11.7-12.71-2.2-.91-5.31-.46-6.9-1.89-1.69-1.51-9.6-16.17-12.36-19.86-3.61-4.85-8.18-8.85-11.56-13.85,4.07-29.37,8.96-58.76,16.61-87.36,1.49-.4,1.62.4,2.45.96,3.38,2.31,6.27,6.44,10.54,8.99,9.52,5.69,19.43,8.62,29.01,1.3,11.02-8.42,20.29-43.02,21.33-56.77.2-2.58,1.01-13.28-1.35-14.02-5.27-1.65-3.09,11-3.42,14.14-1.33,12.81-9.71,46.44-20.56,53.64-16.2,10.77-38.33-13.76-42.41-28.73-5.86-21.49-3.07-34.01,13.7-47.82,5.52-4.54,30.77-24.26,35.66-25.85,7.01-2.28,18.42,1.24,25.67,2.28,3.39-5.74,7.8-9.38,12.87-13.54,62.12-51.05,187.62-62.81,250.86-8.79,2.67,2.28,13.65,14.64,15.64,14.65l2.45-1.52c.33-1.23-.31-2.02-.93-2.96-1.63-2.5-10-10.22-12.73-12.66-1.24-1.11-13.2-9.58-12.7-10.23ZM659.57,392.69c-5.31-1.23-5.92,8.56-5.94,12.2-.06,12.35,9.64,29.66,22.52,18.06,1.98,5.22,7.11,12.5,13.26,8.84,4.3-2.56,6.73-18.56-1.53-16.65.37,4.46,2.31,8.94-1.51,12.65l-2.48-.57c-3.25-5.67-7.12-9.77-5.78-16.97-8.19-2.27-1.78,14.41-11.75,11.31s-7.79-21.24-6.8-28.88ZM511.18,444.44c.74-.9,7.04,4.91,8.74,5.41,18.71,5.54,24.27-12.53,23.51-27.42-.15-2.91-1.2-15.37-5.39-14.11-2.82.85.32,9.7.46,12.21.62,10.8-1.55,31.32-17.56,24.39-4.38-1.9-9.33-11.09-12.17-10.24-1.59.48-2.14,12.4-2.95,15.62-3.56,14.07-20.11,25.69-33.62,16.04-8.11-5.79-5.36-12.74-5.15-20.74.12-4.69-4.02-4.33-5.22.73-2.02,8.46.78,20.01,8.65,24.67,18.99,11.24,40.93-6.42,40.72-26.56ZM624.28,431.89c-5.15-3.25-18.68,3.99-7.4,8.88,6.99,3.03,10.17-7.14,7.4-8.88ZM640.05,452.24c1.96,8.18-8.93,8.03-14.23,5.94-3.31-1.3-4.42-4.92-7.72-5.93-2.23,1.95-2.5,5.2-4.4,7.34-4.94,5.57-21.09,9.66-21.99-.53l-3.41.03c-.97,17.53,24.23,11.42,30.89,1.13,5.89,2.66,11.49,5.05,18.2,3.55,4.17-.93,9.88-6.66,6.61-11.08l-3.96-.44Z"/>
      <path class="st1" d="M271.97,573.31c1.94,16.3,8.91,34.54,17.08,48.83,3.21,5.61,12.16,19.41,16.57,23.46,1.82,1.68,2.78,2.31,5.41,1.9,1.94-1.99-7.91-12.87-9.58-15.31-9.13-13.36-22.49-37.62-24.51-53.59-1.37-10.86,3.01-10.65,7.75-18.45,5.15-8.46,8.65-26.31,7.68-36.05-.32-3.19-4.66-20.53-7.23-21.09-2.09.04-2.49,1.52-2.41,3.31.19,4.1,3.99,12,4.61,16.95,2.16,17.14-5.66,43.96-24.32,49.38-44.07,12.79-61.57-72.89-33.94-92.52,33.42-23.75,83.13,11.06,100.31,41.13,18.34,32.1,20.69,101.82,1.18,133.31-5.63,9.08-8.85,20.9-15.41,30.74-9.43,14.14-22.19,26.61-37.31,34.44.58-2.8,2.65-4.68,3.67-7.54,5.67-15.91,3.46-34.86-17.35-33.47,10.88-11.75,11.86-37.03-5.86-41.98,6.98-7.09,12.47-13.59,13.54-24.03,4.35-42.37-58.56-34-84.81-33.57l20.99-12.68c3.31-2.78,3.86-9.53-1.46-6.34-.92.55-1.49,2.77-2.97,3.87-4.07,3.04-16.99,10.45-21.63,11.57-5.4,1.31-10.46.22-15.8.79-16.61,1.77-27.29,6.83-45.76,4.51-50.41-6.34-98.99-77.63-72.51-124.73,18.08-32.16,67.78-36.12,98.16-20.99,17.32,8.62,54.09,41.43,64.23,57.81,5.13,8.29,1.62,8.18,1.18,16.42-.86,16.05,1.14,33.04,9.58,47.01,10.94,18.1,31.02,29.16,50.92,16.92Z"/>
      <path class="st1" d="M260.91,592.19c8.25,8.28,7.95,24.19,1.3,33.35-11.45,15.76-49.01,19.83-67.39,23.4-17.65,3.43-32.07,12.99-44.32-6.38-5.43-8.58-6.34-18.72-5.42-28.72,2.18-23.65,21.5-27.82,41.49-29.78,15.46-1.52,63.25-3.01,74.35,8.13Z"/>
      <path class="st1" d="M249.27,640.91c19.83-3.45,22.26,21.07,11.95,33.42-9.68,11.59-42.16,24.83-57.05,25.93-16.95,1.26-33.54-4.71-37.93-22.67-1.29-5.27-.77-14.57,4.27-17.83,1.96-1.27,21.11-5.23,25.15-6.09,7.16-1.52,14.56-2.09,21.69-3.69,10.12-2.27,22.71-7.47,31.93-9.07Z"/>
      <path class="st1" d="M266.59,683.17c10.04-.21,13.74,8.59,13.09,17.42-1.39,18.8-19.16,30.12-35.05,36.24-14.92,5.74-27.48,9.6-42.48,1.5-11.78-6.36-20.54-21.67-12.17-33.75,17.83,2.92,34.63-4.17,50.75-10.71,7.06-2.86,18.44-10.55,25.87-10.7Z"/>
      <path class="st1" d="M310.06,700.22c3.11-5.29,7.68-9.76,10.93-14.93,6.18-9.84,9.81-20.84,15.27-30.62,5.18-9.28,8.98-28.33,10.63-39.16,4.17-27.34,3.3-58-7.54-83.7,4.41-1.64,8.15,4.81,10.37,8.18,20.63,31.34,8.01,80.76-3.53,113.88-5.84,16.76-16.01,44.19-36.14,46.35Z"/>
      <path d="M513.17,445.18c-.85-.56-1.97,0-2.03,1.02-1.04,19.38-22.25,35.7-40.69,24.79-7.87-4.66-10.66-16.21-8.65-24.67,1.21-5.06,5.34-5.42,5.22-.73-.2,8-2.95,14.95,5.15,20.74,13.52,9.65,30.06-1.96,33.62-16.04.81-3.22,1.35-15.14,2.95-15.62,2.84-.85,7.8,8.34,12.17,10.24,16.01,6.93,18.18-13.59,17.56-24.39-.14-2.52-3.29-11.36-.46-12.21,4.2-1.27,5.24,11.2,5.39,14.11.76,14.89-4.79,32.96-23.51,27.42-1.17-.35-4.53-3.21-6.75-4.67Z"/>
      <path d="M657.92,392.68c.82-.21,1.59.5,1.49,1.34-.99,8.24-2.13,24.72,6.97,27.55s4.3-11.58,10.38-11.53c.73,0,1.27.69,1.19,1.42-.69,6.2,2.61,10.09,5.58,15.11.25.42.65.72,1.12.82h.02c1.21.28,2.47-.25,3.09-1.33,1.77-3.09.66-6.6.23-10.11-.06-.48.31-.91.79-.95,7.21-.6,4.8,14.33.65,16.79-6.15,3.66-11.29-3.62-13.26-8.84-12.89,11.6-22.58-5.71-22.52-18.06.02-3.22.49-11.26,4.28-12.21Z"/>
      <path d="M641.15,452.36l2.86.32c3.28,4.42-2.43,10.15-6.61,11.08-6.72,1.5-12.32-.89-18.2-3.55-6.46,9.98-30.39,16.04-30.91.35-.03-.81.64-1.49,1.45-1.5h0c1.05,0,1.99.67,2.3,1.68,2.48,8,17.02,4.07,21.66-1.16,1.79-2.02,2.14-5.04,4.06-7.01.2-.21.52-.28.79-.17,2.96,1.19,4.11,4.53,7.27,5.78,5.07,1.99,15.22,2.22,14.42-4.88-.06-.53.38-.99.91-.93Z"/>
      <path d="M624.28,431.89c2.77,1.75-.42,11.91-7.4,8.88-11.27-4.89,2.25-12.13,7.4-8.88Z"/>
    </g>
  </g>
</svg>