<?xml version="1.0" encoding="UTF-8"?>
<svg id="_レイヤー_1" data-name="レイヤー_1" xmlns="http://www.w3.org/2000/svg" version="1.1" viewBox="0 0 841.89 1190.55">
  <!-- Generator: Adobe Illustrator 29.4.0, SVG Export Plug-In . SVG Version: 2.1.0 Build 152)  -->
  <defs>
    <style>
      .st0 {
        fill: #fff;
      }
    </style>
  </defs>
  <path class="st0" d="M691.08,788.87c21.15-38.42,38.22-81.55,48.79-124.24,18.25-73.76-5.95-177.83-28.21-249.84-41.69-134.9-148.27-301.95-303.29-312.36-84.19-5.65-184.43,29.5-242.75,90.84-22.08-1.75-45.81-1.2-64.52,11.92-24.48,17.17-53.38,80.69-55.42,110.2-1.78,25.73,2.45,64.56,35.47,65.72-4.57,77.86,20.88,150.84,53.84,219.72,22.86,47.77,50.83,95.36,79.32,139.98,16.45,25.76,33.22,49.93,53.81,72.63-15.24,19.51-29.96,39.34-43.53,60.06-9.71,14.83-45.65,68.56-48.12,82.09-4.37,23.88,14.59,40.61,30.31,55.47,33.66,31.82,125.36,100.93,171.96,97.68,8.04-.56,18.03-5.01,24.41-9.84,15.31-11.59,37.87-56.49,50.57-75.08,11.36-16.63,23.63-33.62,37.51-48.21,19.67,5.22,39.45,10.67,59.95,12.01,46.68,3.05,133.44-2.84,159.81-48.05,18.77-32.19,26.84-96.92,17.46-132.64-5.46-20.77-18.52-20.81-37.35-18.05Z"/>
  <path d="M691.08,788.87c18.84-2.76,31.9-2.71,37.35,18.05,9.39,35.72,1.31,100.45-17.46,132.64-26.36,45.22-113.12,51.1-159.81,48.05-20.5-1.34-40.27-6.79-59.95-12.01-13.88,14.6-26.15,31.58-37.51,48.21-12.7,18.59-35.25,63.48-50.57,75.08-6.39,4.83-16.37,9.28-24.41,9.84-46.61,3.25-138.3-65.86-171.96-97.68-15.71-14.85-34.68-31.58-30.31-55.47,2.48-13.53,38.41-67.26,48.12-82.09,13.57-20.73,28.29-40.56,43.53-60.06-20.59-22.7-37.37-46.86-53.81-72.63-28.49-44.63-56.46-92.22-79.32-139.98-32.96-68.87-58.41-141.86-53.84-219.72-33.01-1.16-37.25-39.99-35.47-65.72,2.04-29.51,30.94-93.03,55.42-110.2,18.71-13.12,42.44-13.67,64.52-11.92,58.33-61.34,158.57-96.49,242.75-90.84,155.01,10.4,261.59,177.46,303.29,312.36,22.26,72.01,46.46,176.08,28.21,249.84-10.57,42.7-27.64,85.83-48.79,124.24ZM423.8,126.42c-28.69-5.27-58.31-2.52-87.02,2.63-102.79,18.43-178.83,78.49-217.36,175.55-48.84,123.06,13.34,256.22,75.03,362.41,24.94,42.92,52.96,90.68,85.99,127.6,2.51,2.8,9.22,10.9,11.4,12.59.99.77,1.29,1.48,2.88,1.09,4.87-7.24,11.59-15.17,17.71-21.71,17.44-18.64,38.36-36.79,59.16-51.64,4.7-3.36,18.25-13.43,22.56-15.14,4.23-1.68,6.19,1.56,2.67,4.97-4.65,4.51-16.01,10.16-22,14.55-69.9,51.24-120.91,124.49-165.08,198.14-3,5.01-13.08,20.83-13.08,25.6,0,9.17,21.29,28.82,28.38,35.42,29.69,27.64,105.93,84.78,145.65,88.49,3.94.37,7.82.26,11.67-.88,14.28-4.2,30.28-38.63,38.68-51.55,22.07-33.94,45.01-67.68,75.26-94.93,43.22-38.93,97.86-64.09,137.7-107.88,51.79-56.92,95.3-163.87,91.33-241.02-3.51-68.26-27.31-160.07-52.81-223.6-29.76-74.14-103.15-179.26-174.85-216.93-5.55-2.91-13.3-7.12-19.04-7.23,23.78,23.55,41.42,51.77,32.79,86.49-12.17,48.98-53.04,68.27-82.39,17.94-11.07-18.98-15.19-45.85-15.49-67.95-.02-1.36,1.33-2.32,2.62-1.89l.13.04c1.67.57,2.8,2.12,2.85,3.88.67,23.66,5,48.97,18.58,68.65,19.88,28.81,43.89,29.17,60.92-2.62,14.96-27.94,11.99-51.61-4.69-77.59-9.39-14.63-38.07-44.74-56.72-42.11s-44.2,30.7-53.15,46.72c-.28.5-.79.82-1.36.84l-2.05.09c-.8.04-1.49-.58-1.51-1.38-.05-2.08.39-3.77,1.4-5.82,2.04-4.13,13.79-17.47,17.53-21.3,7.75-7.93,17.02-13.78,25.71-20.53ZM165.66,215.51c-12.1-2.69-24.48-2.27-36.6.51-19.07,4.39-26.49,17.03-35.84,32.69-14.92,25.01-38.57,78.82-20.31,105.78,7.33,10.81,22.1,1.95,26.98-6.59,3.59-6.28,7.66-26.95,10.92-35.92,8.02-22.11,19.96-46.94,32.67-66.7,6.72-10.46,14.93-19.74,22.18-29.78ZM492.34,949.95c-.42,2.13.98,2.83,2.6,3.65,3.93,2,23.05,7.64,27.96,8.59,34.26,6.69,95.67,6.74,128.18-6.01,27.57-10.81,39.13-16.77,49.16-45.65,10.9-31.39,13.88-68.75,6.24-101.16l-1.05-.76c-14.98,4.07-30.21,1.33-45.18-.97-13.77,18.81-29.15,36.28-46.82,51.49-37.64,32.38-82.19,55.34-118.26,89.67-.72.69-1.83,1.05-2.82,1.13Z"/>
  <path class="st0" d="M423.8,126.42c-8.69,6.75-17.96,12.61-25.71,20.53-3.74,3.83-15.49,17.18-17.53,21.3-1.24,2.5-1.62,4.48-1.29,7.27l1.79-.08c1.56-.07,3-.91,3.8-2.26,9.61-16.2,34.95-42.93,52.38-45.39,18.65-2.63,47.33,27.48,56.72,42.11,16.68,25.98,19.65,49.65,4.69,77.59-17.03,31.8-41.03,31.43-60.92,2.62-14.14-20.49-18.26-47.1-18.65-71.59l-5.54-1.88c-.02,22.59,3.97,50.94,15.51,70.73,29.35,50.34,70.23,31.04,82.39-17.94,8.62-34.72-9.02-62.94-32.79-86.49,5.74.11,13.49,4.32,19.04,7.23,71.69,37.67,145.08,142.79,174.85,216.93,25.5,63.52,49.31,155.34,52.81,223.6,3.97,77.15-39.55,184.1-91.33,241.02-39.84,43.79-94.48,68.95-137.7,107.88-30.25,27.25-53.19,60.99-75.26,94.93-8.4,12.92-24.41,47.35-38.68,51.55-3.84,1.13-7.72,1.24-11.67.88-39.73-3.71-115.97-60.85-145.65-88.49-7.09-6.6-28.38-26.25-28.38-35.42,0-4.77,10.08-20.6,13.08-25.6,44.17-73.65,95.17-146.9,165.08-198.14,5.99-4.39,17.35-10.04,22-14.55,3.52-3.41,1.56-6.65-2.67-4.97-4.31,1.71-17.86,11.79-22.56,15.14-20.79,14.85-41.72,33-59.16,51.64-6.12,6.54-12.84,14.48-17.71,21.71-1.58.39-1.88-.32-2.88-1.09-2.17-1.7-8.89-9.79-11.4-12.59-33.03-36.92-61.06-84.67-85.99-127.6-61.69-106.18-123.87-239.35-75.03-362.41,38.53-97.07,114.58-157.13,217.36-175.55,28.7-5.15,58.33-7.9,87.02-2.63ZM316.45,324.01c-.64.43-3.15,10.71-5.74,14.27-11.92,16.38-22.05,1.13-20.42-13.57.42-3.78,6.05-12.14.43-12.17-3.22-.01-4.06,4.22-4.8,6.66-7.65,25.41,16.21,45.24,32.22,18.53,12.73,26.3,45.66,23.43,40.47-10.8-.7-4.61-5.58-7.7-6.7-3.36-.51,1.99,1.73,4.96,1.82,7.62.13,3.95-1.73,15.31-5.59,17.09-14.16,6.52-26.76-10.62-27.71-23.14-.53-1.32-3.35-1.55-3.98-1.14ZM154.26,365.12c5.93,3.21,8.97,6.78,15.4,2.28,10.5-7.35,8.73-23.62,7.48-34.89-.61-5.48-5.25-5.24-5.82-1.05-.47,3.43,1.67,11.72,1.24,17.14-1.33,16.63-13.55,22.37-16.62,2.83-4.8-6.52-5.6,8.64-6.58,11.66-2.44,7.56-8.12,15.92-17.16,13.22-4.5-1.35-3.27-10.96-2.99-15.08.13-1.99,1.94-4.66,1.81-5.83-.25-2.17-3.17-4.07-5.2-.99-3.96,6.01-4.25,23.53,3.78,26.8,12.06,4.91,21.59-5.35,24.67-16.08ZM224.7,379.15c-21.69.31-.95,21.87,4.94,3.63-.06-2.38-2.91-3.66-4.94-3.63ZM226.22,407.38c9.13,7.88,34.01,11.3,36.27-4.28.5-3.49.01-9.49-4.86-8.28-3.13.77.92,8.43-1.64,10.67-4.72,3.25-10.67,3.71-16.15,2.53-4.93-1.07-10.77-7.41-15.11-6.19-4.02,1.13-4.98,12.58-13.91,13.62-9.64,1.12-7.97-3.51-9.98-9.53-1.65-4.93-8.4-1.55-3.63,8.2,6.72,13.74,25.57,5.6,29.02-6.73Z"/>
  <path class="st0" d="M492.34,949.95c1-.08,2.1-.44,2.82-1.13,36.07-34.34,80.63-57.29,118.26-89.67,17.68-15.21,33.05-32.67,46.82-51.49,14.97,2.3,30.2,5.03,45.18.97l1.05.76c7.64,32.41,4.66,69.77-6.24,101.16-10.03,28.88-21.58,34.84-49.16,45.65-32.51,12.74-93.92,12.69-128.18,6.01-4.9-.96-24.03-6.6-27.96-8.59-1.62-.82-3.02-1.52-2.6-3.65Z"/>
  <path class="st0" d="M165.66,215.51c-7.24,10.04-15.45,19.33-22.18,29.78-12.71,19.76-24.65,44.59-32.67,66.7-3.25,8.97-7.33,29.64-10.92,35.92-4.88,8.54-19.66,17.4-26.98,6.59-18.26-26.96,5.39-80.77,20.31-105.78,9.35-15.66,16.77-28.31,35.84-32.69,12.12-2.79,24.5-3.21,36.6-.51Z"/>
  <path d="M299.9,328.3c.63-.42,3.1-.3,3.64,1.02.95,12.53,13.55,29.66,27.71,23.14,3.86-1.78,5.72-13.14,5.59-17.09-.09-2.67-2.33-5.63-1.82-7.62,1.13-4.34,6-1.25,6.7,3.36,5.19,34.23-27.75,37.1-40.47,10.8-16.01,26.71-39.87,6.88-32.22-18.53.74-2.45,1.58-6.67,4.8-6.66,5.62.02-.01,8.38-.43,12.17-1.63,14.7,8.5,29.95,20.42,13.57,2.59-3.55,5.44-13.72,6.07-14.15Z"/>
  <path d="M154.26,372.76c-3.08,10.73-12.61,20.99-24.67,16.08-8.03-3.27-7.74-20.79-3.78-26.8,2.03-3.08,4.95-1.17,5.2.99.13,1.17-1.68,3.84-1.81,5.83-.28,4.13-1.51,13.74,2.99,15.08,9.04,2.7,14.72-5.65,17.16-13.22.98-3.02,1.78-18.17,6.58-11.66,3.07,19.54,15.3,13.8,16.62-2.83.43-5.42-1.7-13.71-1.24-17.14.57-4.19,5.21-4.43,5.82,1.05,1.25,11.27,3.02,27.53-7.48,34.89-6.43,4.51-9.47.93-15.4-2.28Z"/>
  <path d="M226.22,402.82c-3.45,12.33-22.3,20.47-29.02,6.73-4.77-9.75,1.98-13.13,3.63-8.2,2.02,6.02.35,10.66,9.98,9.53,8.93-1.04,9.9-12.49,13.91-13.62,4.35-1.22,10.18,5.13,15.11,6.19,5.48,1.18,11.19.69,15.91-2.56,2.64-2.11-1.25-9.86,1.88-10.64,4.88-1.21,5.37,4.79,4.86,8.28-2.25,15.58-27.13,12.16-36.27,4.28Z"/>
  <path d="M224.7,379.15c2.03-.03,4.87,1.25,4.94,3.63-5.88,18.24-26.63-3.32-4.94-3.63Z"/>
</svg>